<mxfile host="65bd71144e">
    <diagram id="a6NBkMxaWINA63_EfooP" name="Page-1">
        <mxGraphModel dx="1255" dy="1818" grid="1" gridSize="10" guides="1" tooltips="1" connect="1" arrows="1" fold="1" page="1" pageScale="1" pageWidth="850" pageHeight="1100" math="0" shadow="0">
            <root>
                <mxCell id="0"/>
                <mxCell id="1" parent="0"/>
                <mxCell id="2" value="" style="rounded=1;whiteSpace=wrap;html=1;strokeColor=#660000;fillColor=#FFFFFF;strokeWidth=3;" parent="1" vertex="1">
                    <mxGeometry x="130" y="380" width="350" height="130" as="geometry"/>
                </mxCell>
                <mxCell id="4" value="&lt;font style=&quot;font-size: 30px;&quot; color=&quot;#0d0c0c&quot;&gt;&lt;b&gt;Data&lt;br&gt;Sources&lt;/b&gt;&lt;/font&gt;" style="text;html=1;strokeColor=none;fillColor=none;align=center;verticalAlign=middle;whiteSpace=wrap;rounded=0;strokeWidth=4;rotation=-90;" parent="1" vertex="1">
                    <mxGeometry x="100" y="401" width="140" height="90" as="geometry"/>
                </mxCell>
                <mxCell id="5" value="" style="shape=image;verticalLabelPosition=bottom;labelBackgroundColor=default;verticalAlign=top;aspect=fixed;imageAspect=0;image=data:image/png,iVBORw0KGgoAAAANSUhEUgAAAGAAAACBCAYAAAA/gL8fAAAAAXNSR0IArs4c6QAAAARnQU1BAACxjwv8YQUAAAAJcEhZcwAADsMAAA7DAcdvqGQAAES0SURBVHhe7b0HoF1VmTb8nF5vr+mEBIikgICIjIAUZSyAIwLqoGMBEUQsWMYyFhypKtjwU3FmHGd0nH8+ZwQEQYq0BAggJUBIz+29nHt6/Z5nrb3vPTe59yYkQXB+3+S9u629ytvftdfex5NOpyueCvYTPM52ZjDVz1Zkv9t2YO4uzAp707x3D4X2h4AHkAGzU+BA0filgAq7PVf/NKq5GVAx//ZVALzO9i/wMsFfGPAywyvCBFUq+9cBj2d623uqz+ubkjuVLM9R/i8m6H85/IUBLzMcEBNkVNAqq7PV3wqxbPb1tzJpJrhV6DFZjocVU8IczwTminv7DLCbCSpX1cVL6onbQ4HP63P2BBXHBE3d49Udjlmy99jRzAz7Z4IMA5z9mWEPdVc8ZRK4xEIkfiXAMz4Ui0X4eRjylkkcIFssoeL1olwmoSte8BDRSAylEisn8cMBEoRb13b7/aqD9/DYy/1CuYRylZRMI7CA5cQEL1Fbcx/tvM/Hetl+Jl9Bnn0ql8rsF8+TAdqqbyW24/XpPpJR93E0XvbTx/5oXxUUPT6dtW3tAiJ+WQL0kjGAMKeGGAaQeKYHAW59HIgGSkJWiiiVOfBAAPl8AWEOPOQPwuMnowq8h4PPppLITIwjl05jaGgI2XQGw9ymkklMJCdIoCLSuTTrKaFQYF3chkIh27YDfp8fQZ6rra0125a2VjQ0NCAWj6O2oRFFbxB1jc3wkZmBsI99ITnJgIKYIuaRWYZxJTK9WEBIzOMYPIawr3QGGJDS0tRoEPwnSayQUKZ7HEyWTPBxoP4kidvVif6eTgz396F3ZwcSJPZgZyeK2RxSiQkUcjmUyayiwTwZ6YFfkkjiFEgcSfGuUUyFZUREPxlN8YafTIjX1fKcD+GaegTrW9B+0MGYv3gRGsWc+e1o4DbGMsFoDBV/mNWT4MUyRUjj5b4RKv0TqL2ZKfwKYIBadhlg/iLs98NHYpQyaQwMDuDJp/+IrRueRf+G5zHe3Y2R/h54CnnkJhKIUXrD9AleEqAsc0D1jwYp4QXuk5FhSi1KBacFC9U2X2dFaBoplMjkIs/kWYeYIix4/MhQA3JeP7zhEDyREAINtahpbcaSQ5bjkJWrsfrY49HY0o6auhqUsnmjFSK/HQ/7xv7p30zwsjDAR/V1QR1N0FyEI2FjCkIkfo4m5bk/PoG1d9+FLc88jZ2bN8JP0xLLFFBDHxANBkFDhABtuTDEAQZ0zPv9Giql3cc2NSbZe3+QZo3/XJAZ8tDnyIyIGfItMi/pbJbmzU+TQf5VSijyfJ61JOlrimRSmXYxx66P5DLI0+5X6HsKNIfzDzschx15FI54zTFYccQaNC2Yz2t+1pdha14EyEQ/GVhifX7WI9M1BU5H/5QMkGQWS0USgIMi931BP0dcQKKvD4898ADu+u0t6N2yGam+fgRyWbRGowjTfsflfOkjwoEQIvQFAdZbzuURFDE1EBLbI6aIsNxWpBUiPc0KZWwSjDN3QOMWsyQUBfaJnndS+lWqzPN5IfelHQXekKPfyrHfGWphmudHyPAsCR5pasSSlYfjyJNOwLFvOBELDjqImkytoVgUi9a0ignTgY3/qRmgaEGOVgwIRyPYtPF53PXfv8YTt96CbE83SkmaFvaoNVyDOB1YkMSPsPN+hZ+0s7yZgyGRdcx6spkkNzQhJKBsvBmLMQMmvuIQ5QWmRqjzLiigFIlEbh//yRQFvTRhbC9AM1gmI3wxRlwqw33jbHmPmta+NGIMBSSZ7iYoRIP5HHK1MUQXtOP4N56Gvz7rb3DQ8lfx3qAxTS+dBszCBttdd/j2L7WXji6M4vgY7r/rLtz47esxvm0bFnFUjSzfEAoiqoinxMFTknOpFPxkRJGMyNHJZko5Sh4jJNYV4L9wPMr6/IjRIQZonuLxGMLhsIlqAqEIorV1kz1wIU8HnWQEVc7RMdO8ZRJJpNlOcsI68gKdeKqQJGnLqPHFEaCpidA5B2lKooGgmV7wkQFlMiDrJ/FLeVToe4aLeQwwehvMZ5GnZtctWIDzP3IJTjvjLIRbW5EcH6e5k6ueornJcaZ3b6/BMMBI4qzA0KycowRQar0B2kIfpRdIdHXhR9deg/v/52bUZgto94WxkBIfyOTREImYcG5sbMTY4wlGQYk8mcBe1rBM26KFWHjIMjQvXYzaeW1oX3YQatpbgbZ29og3kAFTwOOgiU3socBEWFWQzpKTQW5ps8fGgZ5edFEgBmkCFWmN8rhz61aMDQ4b/9Lgo0mkQNSEo4ixrzKjJbbrJYPGSPhcKIAJOv7RdIrmKYvRYAVrTjsZ7/3U5Vj0qsPhpVlSWB2kNsgXKUSdSjRfHHjSKTLADG7mCmj1qHIpOlc2QmkLcqD5zm5c8/kv4I933Y35oSja/LTptJF1wajSAqSpxhN0dIMZDpjnGg9egsPWrMJxrzkWiw9eCixZAjQ3AC1NFB8SU0qmAciGK0urCjMN0FbPCdQa+SATLiqCUlLojkdMGRgyTOnbshWbnt6AjU88he0bN6GQyhjz1RyJoo7jCFK4cgp9GVAUWUWezJqg8A15s+jIJrH89Sfg8iuvQsPBy5An0zyK0Bg4yKraUPXFwx4ZYC0ukxNKnYl+2PEffemreOG+dVgQqUVTpAZZOtJsgfE7+zNC89KFHLIM944/5RS8hs7smFNOREASLsJSakTocipNSaLzJuO4Q8KFyQjafZqPXUHZ8Jwgx0ti6X4bCfMP9w3QlDE+5TZqNUc4MoItjz+O++69B089+BCyOzoQS2axMFiDeh+Zyf75GU1JuksUkLyH5o7bDpq5Bcccjc/+00+ARfPo0CmcZJqIT/2x7b1I2AsGKM4tISrpzKZx+9e+jrtv+hmWRRvR5KfJ8YUY1mWR8pYx5slha2YUa975NrzrskuwYM2RHDBDQaqFkrGCCCQmcEvlZfTDvyKOnKcVIxPKVoPbs+pAQFmxCzrtVejJ/qmc7s8qHKVGBcjgAuv10maXyBSZTjn9oDJi+indPbJlC+746U145D9/jUD3MJZE6xEnQwMkqPyEyYbLzEPoD8aZmzyXGMOR7z0Xf3fDN4FYGEk6ZK/GYVp/8bBHtpmKRRyamdyG5/DM/Q+iPRJDjNLhk2MlAStkYZHH24YH8VdnnYHL/8+NWHD0ccZRpjI5JjeMnwtehIocWJ6ELzGuLlFqydMy8wJNYyh+F9Jv0z2Xp2GJRKj+Z6IZB72iKhki/yIySBOC9BkivmEtia1yPppQJWxMKqifAQxPUKrZp8bFy/DuT34c5374A3SyjXTGOZofGl4RnqCoR6Qt54sIkanNNTE8eO/d6NnwNM+yfWPu9h32ggEVYxspStj+3AsY6+1nSOk1iZSH0q3wUVGRUMnSicefQHNCdR8foZNSAsPBszzZZRimrY5s00K1sGdUFDQb6rrqmUQTVEyh+mUViFogqWaoW0Nf4c1RAvLUpngdVi9bjhrmKxIacxvBrVlEVg4g3dRs10h/Hx5du9ZodyqtTGLfYc/sU8/lKGkDRoaGjbr5PFRQcV7ny3nEgl7G+0C7P4qnbrsbeGoTxZhMY4bsp2/gLcxCKVVEbQusq0Q06b5popohQtlVizJWZVZQmgUV/dM72X0Hzb0VMpooMirCUXsiaJB9jhGDNFlRRmrMsIAdvRh65GmU+oYZslJoaCKtXlpQviPt0aypBErTJWPDw+RGAPH6+qqSLx402rlBxKL91laBiqYGPMpUyQD5Oal8kSl7mNdaAxE8dvud+NXlXwDupYRMZOkfmfFSe+RD4hxsnNswY+4g0U/m+Vi3R4yUf1DdBinXDkrKpGWzoUJIpWvsBc0Gc12ih+jVBCAxoPZI6Bjj+wijKR8FAukkCU9JZ6SGjRvx3Pd+iDv+7VcIFcqI0kQZLXGGbzM2MsCgxq0pEzldDb5ips33B3xf/OIXv2rs/KxcZEPiPBvtXLcOW9c/RmIyqKBC+plxGtNCe1smcZV0aXJt+5aNWHfnPShu70CQsXckk6YNts5V9ljWWZrhp2ML0H6XOUgpmuQ9wAFWGFJ6xRAeG3lm20qaqlESah/kkBGMRjxe5bpGF+jcqRe8pqDNS+b6xBAGCtJIgx1dSK17GI/8+y/wm+//AOt/fw8Zxb4zHI0xF/ApLCHKdPqYuIkJSr4KZHia3OnMJrDi+OOw5uRTkWMXJMWzUW9PsFdhqAaoqYS1130Lt1Na2hkkN3qjjKGj1AASgoNXOUmEnFeGUpdgxDReyCLD6Kh52ULMX34QVjAXaD9oCZoXL4Q3HoGXCRlicaoyfQZ7IWk3YSKJQFGjB+TgRUWFmNUg1dN1g2qXpkRaqnJmqoNl5LdGx0AjDQyNIEvzuW3jC9jKQKJv6w707+zExOgoM/YAmmO15lmFCG4e2Kh6CpNhgEcMYHV05lk66H5GeuvGe/C2T12G86+4mnmC/Io1ovsC+80AUpy909SxDS1FxwIJoQk0TXYlCxmMZceQoxRqhlJEbVuyCO0kfnN7G+Yt4v6CRWa+JtRUz20E/vpaS3iaAyU6rNzpiwNigLtVnUWalXESO5tDfjyBieFRDPf1IUEGDHT1omPzTvR39KCQoRYww5XnqPPHUBuNI8o8wURT7LueQaglaZ3qVrigWVA6FsOADLNiw4BENxnwCfztFVchyear/cWLhQPCAA+vSxLNEyV2XHZSTku+QjM+hUqegllEhhlyKpOhQ6T5JSEKvCpsiDErZvrvq69BhQmcpo0Vz9eGwibdj+qhidMbgQhWpJnSvJJMXz6TQiY5AT/bTScmUCEhE2MJRiwijpd2Pc5ILmjmgkI0JbLxMmOa/s6zT9whv73meYShBK+5DDAmSGbGMMDRADLgjE99HO+hBrzsDDAmyKOJXvbSAbcmbRUAaj6IQmRAhFTS5ILuS6YSZArzbQq9povNvD6vyRRY1Z4+QDeotFAxRNVWhFX5Okq2tlRK3uclfalJzDdUh6mXxNZ2shYWdmd39axBoJlPkp9lmbv4AqbPRZrTfmYRa8e7cObln8C7pQGapmb56v69GDggGmCeQ5GAIrIGZWpziKFjnVe8LtDfcrVNN9EV22AJaYZbh0D3i6jmSZk9ZcA8bHdAZf0BSin3VLdphXF+dSRTpJ2eOmKdHIvbhq2BKIKTMZrv1xnzrJjH0oAAscg+F0mHAU/eMOCMyz9OBlAD9pMB1ePaJ1DDLqHcQUsXpgjJgUidKWEmMtGWUZVQcbUyWc2w+ukMA8QgcwwfpdVP1NZLjAQjCFWhj+VclI02FpDc81DVhFK5Co+FEmgz/cG2hB6iJbEEx25lQuRIjcY5YzAoJgjdY4M6Z/fN2Mx238HqogHbmd3Rhep9gXOd/6c6RKjaVwmB6fQkkgksoGUgQte/Sgv17FXoZ7dkf80/xt+kwTS08bhFc91wvOo6JZd/LHLftsxrDppnvkT7YElX7T/1wkW3t7ODatp/kPASqrs3E2qE7tbdt6hVXWUOlGTlsUg2RUi3++5gJu8ixdynakqkpmqz4BJmEifvtyiL4qIexLMp9kH9sBl2UVuKcpFozJqpR/VaNAxyUQx0UaErUdvqfduW+uowjnXylO2rs91XcBgwF1Q1NSkQ05vVkQhjYUqWdoNZL1hwL1tWWnTPuVI60z+3B9VY/a8adivJ2+12OpPV4tSxLSOo3j8QsBcM2Btglyh1k/u7dbP6umCqjIYqu2serM+AurYnVNWzopojcHdWfDnhwDFgt+HszXH1dmZwCbi/YGV6Znw54QAwoJqQLrow27F7zhqIfJFJGeNsc5Ze2UO76yJDHRNRzYXWnnNnJlRSVe00ZsASQ0wtgdQ60f2dXHuxcGA0QLo+SVgXXZjpePpWq+g0RVFWiEii5SulSdQEmEXtz4IqRyc5G4qJs6FCVOUVmizUwxstDP5TAntxIMEltosOTGOQYGorJ6jQvcBkLEstyFAbnFD+gGGeo5wNlXlrBZ3WI2nB1+4Lr15aYBf2FthTUWua5XRDUkH1+WrgOXOfs7/LVm5YaX6OOF7KYbCURXcxjc5Shqhtyhx3FzN2y3NdPDcNeX52zGBbdmISt2aTDqYMbiP2I4/hSg4TxRyy+TzlhWaQqL5ZM2dDXGPuiHbjHOwn7CUD1JCKSj2F7m1uXiBwywjdzrnIc8xop5exx6YEpS5byGKkksZAqITeWj921nqxKZTHtmgZO2MedMTALbAjVja4PV7CtniRWOJ+Bdt5bUaM6x4P930sK/TjhbAX22rD2FoTwbaaIF4IFLEVaQyTEZoI1CNLH4dVIhNK9EOpYp5XShyC8oCyja6MUJmsh9t9B2dhlnM0I8hMlKHnwGuvu96ZCwIavSGENN9In+XG0FPaoO1UpZN7k6bILWH/Su37KZ351jhe944z0P7qIxDQ0nGld3SSQU/QSqSZM7L9EePt/S5TZwOSyKsnua5EU+OMzHiRzeQQCYcw2N+JJ+65Bxt/dy9qkjksjjYgwnvSxQrC8QiK+bTJ2jWNMVDOYv14H866/JM494prkNZ0PPui2vcF9o9908AS06ILVeemcbnqPCFAJ6h3ATRJduzxr8Ohr3stsiyvqeXC+ASK3BYntE2iRCyPp4gkChFmn+e5nQl1rcw6KqyjlEigLBxPoDQ2Zp4JL5jXjiPf9R6c/6Uv4bV/ezZSLVF0ZAcxQdMWDtAx50oIkmFaSKy8ZFdh1bFEYF/hAGqALesS1YI9Nmem9dLIsT0vYHrfmxoHFjXhw1d9heaghG/fcAMKm7ahgSZP08FW5W01BnmP26p9MWR20Cpr9dHoDW9W9KkXMkLBIA4++iicfvGFOOykE4D+Xjz4b/+OO2/6GXyDCbSFahHiWKNBv5lWqlAD+qgBjyamNCCjhWVGI+fqwexwgDRAjVd3YJdjw+FdUWD3NTejPTljRSPyMv5sAc154CCyuTVXwTyGM/O4nZ8ln3Ieog8LhHmfOTcbLiAuYqizmHUtUX35CvdLWE6ta8/lsfOhB/DjK/4BD/zi56C9wes/fCne+w9fA5YvxeY0NSGYQ4KBgUJiMa96UZhAcuGOZl/gJTBBLsx27J6ruqZBVA1E/JLK6+F/jBIWp4CF6SciWjLCPMEmaFom4qd9F2p/FiRz9ZzXLCehBGv6W48PwtyvDfpQQ4KOPfscfn7tN/GbH/4EmEjjkPPOxfs+/1nUH/kqbMqOMzgomGXsHt4of8WuWuCOcSf7Ac6qiD0AKaLVCp1rH8aWRx8zBInorRHJqqg2WUEVUQ04x5M2bvfrZlUxMZHPoszI5JhTT8Y4Tz3y4FqERhKopfmZSE2gLz2G/kwKO+isOxlGduUYPvK4h/udPNdtMLkb9hIHiD0MNzuIXcTRcgb99A1FSrZeEGn0hRFIF7B5wwb0duzEwYvmof3Ev8Khh6/ACzs70L1tB7zMlPXeW4mJWj/bXkFftfKUNyLLIVn3vm+wlz5AT8S8eOi6GyZ9QJM3iBCjE/NI0ik5MwN0vz2qvu7uaatnvF0TIyjOr8PFV30NnSz/vauvQ+3mTiwOhDEyOoz5rzoUR535VmTiUaSc6e9gWWEgkyn6DE1DzwR+ng5SajXILKVY8byPhGwKBJHr7MKz961Fckc/IpE4BhgK95ApLUeuxNkXfgBHvv0slLdux4+/dAU2/uEBNLLdUCyMZ0b68Def+gTO/sdrmDvo2bF6M3P7U2dnZpF9QWOKQruDCf1KiJJID4oB352JAXPcPwnTO1jNFJ9hwDAZUIOPXP01dNG03PCNa9DS0YuF1ID+gV684ZxzcMK3rgZqa2mbGNwrr0jrgToDgbKWps9MAHueKC9qHrBrnyimrH8UP7viKvSu34C2WK15dpCksG0mgT0tdXjnRz6Ik9//ARp+L/7zmuvw4C9/yfQ5g5FSHu/42Efxjm9chwxv8pFG1WHAdD/BKzKZs9DI+gBzTX92RxNrTEqXts4AzN5Uo7vetzuqqSn0kICTyH/2uZWSnKk6LZMq5v2urFYvFJgolQqYyKTNOYTC9t2AaITIfRf1goeLNcQYrwdpyugLMtEYUmSqlrvkSBg9TNJCrBC1KUK61VKiVzW2on4ig18w6vvlV+mQy0Wce+XXcd5HL0aO9aVpgs2rsuyfl/7BxlcObcw4ptAezw6WAa9ooNPkX71iJO/pDfgQjUUxMjiAtb+9DX/46U/x6E9/gsd/+qNJfOTG70zifT/8Pm6+6UfYsuk5+Ol4S9QWn5cEo9SGmdVGqRHyaUyuEWZbETKjgS0eWtuCpf447v/X/8AN73s/cg88gL/67Odw2ZXXINDUZJI00ImXC8xH9sMVv+IZ4EqPowxEShQ1+tlnnsINV34DX7z4Ynztoktw5UWXTeJVl14+iV+/5JP4x898Fg//4T5m1SUUchmzptQ8SDaoRMZBXte0iN4VDhQqaPaE8KqGNnQ/8jj+/kMX4omf3oSV73wHvnD1lWg7+GBGTEwOCzI3c8n43PCKYIAW/E49Ay6TDnSqJIa7NUbLiZY0VpkrP71rmRHNoS2teN28hTixdd4kntq+AKfpXFMrjm5sYpl21AfDCNFkKZvN65UnZsE5Ej1LTcj6y8j5FOeTIfRHWp+UKRQZCjNMLfrwqpoWxEYm8MOv/AN+/dUv4oiTjsOpH3gf+xJGMNzAPntpHfMG9abni4E/AxO0K0gNygwh8/QRRZpyEozEzBemUO955UhkLZHUeh69faO1RbIUfoXPtP+QSXPMmjJcRdRmuQwZoOtaNRf2BhDzBNDgD2NZQyuay3786w0/wtc+/in0Pv0079fiYrscQc8S9MD+xT7Q+bNhgMhu/jIAKJRyCATpRFHEQDGF7ZUMNnmyk/h8OYkXeG6LN4cubxGlmigy1LKyPkOgKMjOMZNg9AkkWplSW9FydTLNSwYGmY0HGd2Zl8UdzfTTSS+Ot+PVjYuw5db78Y2/uxAP/fP/gbeUIJqQgMQv7PYhkT2BDUOl11Nx4TQwM5Cegnkl6UHNBSkMJZObaB+1iMrMBRkbOPP9ewatDaqgOzmIwvw4PsI8oIPh4vV0dgpDF/mCGBjqx4nvPAdvuP5KoD6OXDiEno5ObGey5k9MoCnMRIpEckFSqCdbWjeUIhHHGPUsWn0klqw+AnqVSrY+LC167HH88opvYGDdeiyKxEw0JMZ42H6F5WzOS6kmYzwMd/PUhFSliNFcAp3sb6WtDie961ycfdnlCM6bb17g1j3iscBGQfy7xzD0FQZmcS8JIJTdV5Svt1xMd2lv/YxOQGI0NLWgtq6eUhdDKBifxHisHjXxBm7rGIXWobG2waz7l7QUyznjP7RKzs/6FfUoqpan0dy/nqAp7FbuU2JOoDVGPoW66k85z4S0iFZGPyvq69GaSOPuH/8Tvv33n0dheMQsKMuT+SWWFaO11UThXPCK1IBOSuz1V147mYh1D/bhpHPOw2nfvgqoq0Ghph4P3nsv/uOaKzH63EaEaVo0ZVwNes1U0U6SmlFobMQHPvNpvPmCDyIxMW7enolr3f/6J/Fv1IAtjzxq3hWWqREztHJasitLpYWL3op94c84aTIl5NWDfEZK0SA2JRLYGo7g+7fcivlHHY1kjr6JfVZ5skAiYwXpz0kDdgV1clpHqeqBPE3B9k6ExpPmEwkHccQuLiHhFzKKma95nmwOEUql3t6Rp9ULh3oFVQ40R2oX66JI1vgxECqiz59Df7iIrlAB3cT+YAEDxN5gEb2hEo9LGPZzm0+aF7hTzIoVvoZJ4Ii8OONjfWjE7e/eiOS0cb0SQYMwAxL9HNCuzFQuk3VmOu1sp4t6UUSBjZFjhbVypOZGmgcyxqymzmcRbG/CqtNPwRsv+iBO+vAHcMIFf2e2J174fosXvB8nEU++4H049UPvwxs/+D68meGnr7HBTML5Gdpq9bS+P6HP9BhzyfqlRe6isep+zwR/PgwwR6QhT1Q42GIogOaDFiHc3opMfS2S9XVT2FCLCZqqbHMjvPPbEWptMh9q0vyPphBSdKopmpLSvCYc/e534vTPfQ6nfubv8ddf/DJO+8zncbrwc1/EGz/7eZz26c/y2mdwyqc+hTd87rM47oIL0XjQMtbBzpQDCNAUm2hKHdVrUnp4w13lG5pSl7uZiwmveB+wmPv98gHvPA8nXm99QCpeg5H+fvQ8cD8izEbDzkBdMG+4OJDx+TDKeH/JqlVYuOJw80anFu5qhtend8vY7yLHoTlNgYjll7liHSUyWbrjYy7hZ2hqlrkPDOE7F3wEnQ8/iqV1DRhMpbE9HMB3b7sVdUeswpiTwIkBfmqcuqVvFs3mjF/xGqABCA04B+6zWUmd1vYUSYB82D+JKVoDFzUFHYxHaSp8KPUNYv0dd2Ptrb/Dultux8O3/I6o7W+x7tZbDK6/hfjr/8HjN9+CsW1bUc4k2Q6zZS2TEHrLzJRp1uSQbdA5KX7qnvpk1hq5feNWznw22CsN0Ix7lBrwUNUz4SbvlAZMdWFfYG4NWORowBukAW4UVFuPtfffh59++UvwDA0hRAnVRwFnggwJn6NZuujij+LQ5vn4xpf+AUlGQuaFESZyAk+AZoT9l8/QS9p+Zs5ZvxfnfvoTOOXcd5KJiu0riGrJSv8gvvWhi9DD3GEZ+zFEDehgHvKd23+L+BFrMMwAQQLi07gsZY1G6t9MsEcNqCatCgvdc5MNEF8qmFa/c6D5Fg9VvX/LdpR6BlA/kkTr0BQ29o6iZXDCYGxgBJmeblQSo4hOjAFbt6K9dwALqQ0LBsawcGgcrZ0DaOvqR1tnPxq7+xDq60GqYwcKJK4JQyloBk2k7yeBNYXt9kuZsibxeMLGrQwAaLYMaprdTrfPBntkgMC9XVup/q7bPyVIUfUQX9GGeY+X7QcZZoYpeZNIZxuhVgj1mZ1IiISjJkf8HvqLImoo77WU6BpSK877m4J06PQTLYyOmoh1AS9ixDKdql2qSDKR6K74uS+guGCzBnlC/jPPN5RPUKdYxhB/DhrtFQNeTrBDmxqDYbgIHw6h7aDFCLU0wNdcC09zzST6W+vga603GCDG21vgiUeQJVFDrY1IhX2YiPiQcHCcAVIibDHF/UKI5epi8JFxfjLHCWJfEtijD9CDC00GKNl42ImC2pwoKKTogfuaJrCR0L7Ann1AnxMFvcGJgnLMhAe6u7Dl93eiJkWTQxut577V4L5JOca6e0M+rDziSLT5I3jy9jvgy2bNQx4lC8pSSwW9Hywia6zKG0rIRKOY94ZT0LJyDZ2qsmr5AJbvH8ANH7iQPuARLKFvGUyl0MFo6bu33U4fcJTxAUGv/ABDXvMpZ9VsSTwTvOI1QCDSmO9CyNESKySSnhMMjwyjb2QEO8YT2JxITsONo+MGd45NYHg8jXSmwHuAceIoiT7OXGKc22GasgmajQRDx1G6zmFiwhvAcK6EIglY0WfAdqGefZ2VeQQr1P7+wJ+PBpyt2dCrUaEGlGubsfaBe3Ejk6MS84GYP0iyzdx+hvQpNNTgoo98BCvb5uMrn7wcnnzOfpGXmlMp0DfoM5caJcdqXhgv5pAMBHEuE7I3nvdulBj9mK+GORrwXUZBOx94EEvq6jHGunYEfP97NUD9dlEgbRCxSzlms8MjCKdyaE5kMW80MyM2JdIoDw8hmE2hmRlwuK8PTUMjaB4eQ/PYOO+dQCOjqKYRXic2jqYQGBxFcXAIBX08vDTXiov9BzJgFtZMA5dP4mR1Z/bm3gMEVc3mGb/bL1h5zGfEYtTeWl6fCeO85ldkxK76yIAoTVggRw3I5xHJFxFhzK+oKUQbH6Z5Esb01Iya4WV0FQnoo8ouVI/X3d8/GljKzmZ+BLqmEMyEYeydSV44sknYvw7sDagF+/I1wz8i3aR5kqUsUx8DzHpLSFfhBFnkYpphp48mSl++rYTCyNCc5BjZpDgGLazNcnwj5QIGK3kMcTump2MkejQSRVyPLKlpNuR0UXSoPha42xcPnnRK83pzgaw7pYOS//A3r2YmfCPaioyXPRFKX8jxAdNZ8uJgbh/gzgUpEz5BmbC+qFLThKG+bvSvW4smSrIkPWimmy1Uf1s6RcYl4lEcdNihFG8yYP16+KkBARFVzwT09Iu3ms+acaQiZZDR0Si1pn7NEfC0tyPPkFdf4J3uAx6iD6hzfICXPuC2/71RkPpuLJ+QtPXQLuvHHzSfP06i9DJe7wgHJnFnFfYQh7yMbvQiBRnTQ+e7jf53a8CDDmInebCDxztI9G2saxuPO+mc+9jUCNvSI037NO6lgVe+BjAkHBzqw8lnn4fjnbkg1Nbjwfvvw9UfvxSBdAoexvHKiF2oftEup0inoR4fvfRSHL5gPi7/6MUoZTPGlOljH3p6oAhXsZ4ILVJHiFnuv/dzX8Dbzj/fLMjVq0n/v9QAI/3aEVFlKziYiWIeCRKxkE4jlEhhKWP8Fan8JK7MFHF4uoBV2RIWMSeIToyiJj+BluwE2hNjmM/oZxnvnT/B/eQ4luYzOCSXxeEZi/PGRxAZ7ke0lETA6y49fGngz8IETYLDDb1LrN+K0dRYkNLfRBPTyjxlJmzmtTqWr/V5EaV0xvIFtFOi2+hg2+icW7ltpca1+vxoI2rbwPtiaodMKerLivuh33uCPxsGmDl1oiIfmY9CJoP6eBzj4+PY1NuH5wcHpuPQIDYO9GMT4/3+niGM9I8jky5iNFHCDuFgCjuHUugYTGBb3xC29qv8AJ4jbmbuMMayxZIXAb9WjKrxlwaYCWfmZq8xX/QB3goe+ua1uI0+YF7BS6kL0wcETVTqviNWXdGulc4+BPoYikH3xBCKjg/oMj7gGjR30gcw2x6gDzjxHefgxO9cjQJ9QLGmAUNdPeigH6hLZ9DAWkJVdl+g+Xt9mmyUUVKePuCwww+HLxxB79q1qFCy9bE+hvpkpl0drQ6LyeaDstwmOKZm2vT65cvN2zE2E+bONB+gTDi7Xz7ATEXs9rtcu4CWKIU5oHtvuAG33/hDzMtX0FjxmxckAnRiWu6nFpzpcJs6mDstuMs9ZgITYrN0T3IEWFiLS67+OraxrBjQKAbQUQ6RASeJATdchXJdLfLxRhLEQ5PCCIDmRSscpjVYDapfqC8myttG9YlMbk27/DN5H+vyEM0J1UeUcPEwU8iw/wVE9EiSDPjBhz+KHZqKqLcM2Ebh3D8n7HZyJuTN5hlrqYT25YcwBq/FKJOVQtDPNEcJUdkQ2IYSRB2zrBbW6gN4wskv3M6A5uNNphWBabCKWeq84nPTC3NskiKKbp4OdiKVQ5qYSjPpyhZmxgyTsaw+P19BkvcnmQOMZXMYIQ5nsxilM09n08gKM0mDRTrlHK+ls2WkiGrb9tUSUvu2b9rnn/0Ay4A9gPnoHZ3eIcceg9ZVKzHEmLmf4ZdWf+lFOD2s1oty+vZbwGOnxVSxCCk0H8OYBXXfXGAGLx2Ululb0ERNAkYopTFqn34USNMIWiQ7I5JYelypZSNC7ZvfNCNqOaPQPafHiKY3FB59cdfv0Q/SUX45IJOoaWAEo+GzqfSLhD0yQPbd/GZKIAj//IU4+i1vwXgsiu2MDsaoBRMBH9K0gVnGyCUyxvyCke4jqr8GWcdcOBeoHjGgqHJyFtzqC+eVsn7FiecUm5Nq4uNMaD7KSgEx08dEPZyXb9CyRKH2dd28acmsWFgs2eluLU+U+VD7kL/TcwGz7/ZZ1sHZ3UcwDNiVINUSapZys6PZYoWZpw+nvOdvcQKTk0RrE3YGKtheyaGLOMRkfbxcQJKoVQHmW25EGVF9i6c4C5pfTqKk2i+VyGRJvauAdeklvFShwP0S8vopQm+JbRD9vNdfYpt5ZCitM6F+sirLejWnKdTPkkihna6Z/TwJnmO7Odo6YZlM0FISTU3LKesD5D5fhP2ljlAD1UX1XQKgx5ZWTPYN9qgBFvRKhNc8GcrQKZ5zySV4zdvPQhcV49nMOLYW0+j3l5nyl5AOUiOotjlKn34IQTH7rt1Tx13ckwYIWMqseJM90xfRQ6UC4mwjQAJ5iln46CSDxRyiPA6V8jRPpSmkKYnQDAmjDsaJMVLRRZ2LkBsRdtSi9nWOeQMxwlwjSD8SohB4AwGzbsj8IlPQ/rTVvpN/LxkgEpFctJMipg+xljZ87GtfwUe+8TUsPOk47KQkbi4m0espYJhMkDYkSIw0mVBg0mMUWR110F357OKcwPJhtlmr5YQkli+Zsmv3FdWkJrhNm98uiIwNIzA6jPD4KIKJKQww2/Uz+/UnxuEjeifGGWNOR08i4SDrM6h9nue9nolheBOD9CdpeApJ9iFvXvAu0Zkn0ynkqAmWQvsGzhOx6TD9MZsqJyWNFogBFUYWE4yj/YiHfBjYsR2/+7//F4/edQ96nnoO0XwZjYEw9PHgWmpLnAT25bR6maxjS6pZL9wZpvJYW30yTGGoZ2EdLrnqCnTQ1H3bCUO1OrpvqBcnv+UMnPzpj6FE+++rb4U+Q58vpBGMhVFkLtDRsZM10SXQZE7XKvXZtOb8ZR+cdo0f5Y6NanYjA8Ge07dJ2+cvAMIhMFzCTV/6Cl54/DEsbZvH/GUc3dEQvnf77ahZc7QJQwMUQrsuiHSj0NqGZoYZGbA72K67BY3zUwN0TyZGYQM7t2zB72+9jR17EluJoWwRTb4QYiSufrChjoTxpXOIM/3Xh7fDdOp6zEmPRwp40Ks8YH4NLr36Cuzg8feu+zYZ0IM2DmCCEqzfdvTUxVFmPSKIiJxlDB7SebahHrlgfu1pEqb67ZYxW+ek9t1vSc8GYpiCEbPQkAVzZL4nX0BTOIoehq/ba4K47uabUbfmGIyzb/o6sMTV/A6BaciKwEywlwyYDtM1RGbFxvSahRzu7cPG9U/gqQfXYeczzyE10I/ixAgCmQzihQrqQxGjBRFKtn5tL0Bia6HTIMv459Xgsqu+jk4e33D1dajv6kUL683rMwb8JzKrDb2/ZRmQIwMC8JqwcWoYe+NXXLAMkIZPgQTEBXOd9al2haGaClHiJyLX+UMYYB82hz248fe/R+3qozHE3MP8BBaL2d8VsHZDxzPBfjPALMMrUhM4iPF0EqFIGOFgCDna0oGOLjz9+Ho8t+Ex9O/YhuLgKLIj4/Y7/pQgn5wbtT/KKCORHEfzohZ85upvoJM2/vprvonQjk7z04gV2l0Fgz5qjZ1isBqgz+FPMsCQyMKeMvtqUEmFodV3KMKZBI3PYagyfTEhWySR2YcoW02wbA99wk133In46qMwxsRPvyhiKU7CGyY4hzPAAWAAjRAbFdf1wT11MEhbKbVVlICCfjNgFANdHaiMpzDU2Y0dW7didHAIPTs6kE+mMTE0gjE60LrGGnz2iq9igEz55tXXotzZhTglvsLQ1jamMJAbte9oQFDPbHdhgJaL7C0YE70LA6pBhHNNuDZiQpZED5LI+tmTHDuUDAXxk//+b7StPBL2tW2WdCju+jnncDcwDDDxehW82LUu7vciNBjVZJIb7piHJIyGtKpYayX1QzgmmRobN7nByOgoA5kJdGzbge6eLl6r4KTTTkWKBHzogQeQGhxk1kv7TJOkjFsZuRImDUZ9FDEEHsb5L67HU6Auqp7pFJgO5h1lgv6qXI4MF2j9v0ZeDnlx3vvfD39to3nPTK8mmTvYb+v67b0zwX4zQHfKLrs1qCG9seJGGiqhREomQ789Zhway+shu1FpEk/lxDR9sEm/iqf3exUZSYPMb5BpIIyo1I4YYH5/gPWpTfFT4elsA9wbUD1u/3cDVqy+q37Td27dKQkJmORdr83qXMlkyjyn70eYCm30OFffDoAGMNMlEbVVQ2q4OqrQiwkF2y34KNlaRRwgEU3Wq7NSf+5LI/x0zEXu65euxQjzo2rULrMamfdIA8zveYkgLgO4ZQWsffoYXgy4/Z4JpNVitjbuY8+MfARPWCGjdvtt69blSktNvESkL3B0U/fPBAeEAW46rkGYjpJY5goPDJEZeqoNPUgXA/S7MCKupiv0hrmiDv1koLohwpd4u76Iq87rna4QTZfq1Bd0pQHSIDHZ7bWWh+8rqL+zEX8STNg9xQB9ZFm7YoDGrXco1H+9BK6fTCyVc+Y6RY1ohdHWsDvs0QkbCZsDjCQ6NlGwa2nTEXOSUsSDmWozQqyCtCcmtWdBbeV09YkBzaq7GmAIT02SmROoblcDZ4M9jWFXAdwV3KtuLdXHYgUV1Jwz0Rn3SqWsObYa4Ggs92aCFyPqc4Cqt2iccRXqnFkn7/Tadmw62vu471QzWRtPaitwSph9ddotY2Jtoik7G1aVnwkFLDYrujDbsXHi1Wiu7h0cIAb8BfYV/sKAlxkOiA+gwZ5U5X0B1WFsvhwsIxopsfUB9jcqZUmVeeor5yYPoA+QL3BBkxRzDWJvbPzcJWYH82TMZ/svS28/BmW/nvIn9AF/gX2FvzDgZQaHAVKQ2ZCFTJRRraRSNx3bMubzLlJFR5mr96qPpkB3O8gqNNWrc/aMwJa3EY5txZ6x5QT27xRM3eeWrd6zR9rqn/J2GTqlbxZ5hRW4pQQ6VnRTHeG4x/Yc/6hVXph6G9LZmgxYIencWbDAk0llHdLOXNS872reCdBUrE21NdehxmTj9BC+7Hy60aRfLKCPHbmDMUQ19lH74rd9imCJbwlinorR9msSVwug9AOg5iG5nnyxHfOaP/1BicdmmqOk2UinHlWs7NnU5RDItKMM2rak37wXiPDatQRXm3pswhJs0/bIpYLDIHtAIbA7ej6sXTM3xR19HkH3mWfDHKOumYSTZXWHkUltHTGfCShk6qBunB1ZO7dEs+U599gc6L8jVeacLW/O80DnNJdvtg7yf9W+kHc7W13kf3OsagwhzHUS2Vx3y6helXHvtfu23qlzIn6FlNRCLiPtTp3uWMyfajQFxHgit/rCpUUyVBk4k059eVeonzbXeVPW7Zcqd9REDNC1anrtip7URFob3iXcHfS0S091WTs7LolRSbWiM/TylET9lLiOJPfWZFiWm2V+Ksut6QzPC9We6tE9RoLUtAYrzWFvlOrrxQn7I5xSZkZCkjJGP/phTXVHGmIkUnWwfW3NF6pY3rbArXkkqDp1RjRhOd4TNA9M2BOlsDrv9N9SQH+1bwloxNo5p0kI07gumHsV5fAaNxKOorSShK8UyBwW0dj0ryxls5XvBp5kIjUnA6z6aP09TYQqVZil1J93mVoVDqpvMhMqrC1bd984sWps7zffdRNRHWmZBN1n6tKkg1Zf8F4SKcdyqiVcziOoRgokgDfIskR/gAMusX71xxJWk9I0VAiWck47WssTZF8C5rq/nDFlQUaa9gxVVE6EFbjniGYcznXWacassRsWC0UYvV3JrV/HLKe+SVz9ITN+CaoRQdZjqp0BPBPjWrTnNDoDiNFaH4NsCjWaBRwbRf+DD2HbY49i28bnzG9vhWqbsHTVq7H4iKPQfvxrgagHaRE8VItCoYxQyE9fwnvzaSQfXYctDz+EnRs3orevn9ciWLpkOeYvW4FDX38KsHS5efidVGxNyfLTv6S6d+LnV12N3LPP4+STT8dxF3wMaGpBwa/fdhFTJGcW4iUSuTSB4rq1+M61P0A6XIeV574b7zjnHUD/Tjz+83/B2nv+gNpwlOZE0krtYl+Vb0gQgkGthg5gnO23HH8Uzvzbs7H14ftw/29+A+9YBr48zQ6ZKbtQQYTkJaG9BRR9PiQQxaEnnoo3f/Jy87EPj/M7y8ZhC2cAv7FFzsGMwM75vUXShGrc3Y3fXP9dbLj3PmQHhySrdIxFvceG5x5+BJ54A1779rPw15ddhEhbG/Q1Rw3Oy8SkMjyAdf/0z7j3V79EbqAPhUzRfCA1XwB21j4Bb7gGLTffjtPefT6Wn/k2xBrqkdATNhLYU8hivGs7cs9vQP7gwyiw7LGxs1Jvd+rXgqa2kRuHb6QHqa2bMOCNY+HoIHK5FILE3s0bsemxZ1AfpqxSUfws3hIPwecj0fM5jCYLRrZHyYAVLTUkXhG+8R70b1gPX8qDzFgFWfZZ7bkk1arJYsCPvgzZ0rqA19RrnndE2/yp1vgq2CMDfGVGHJUJVJIJ3P/DH2DD7XdQ9SOILjkE81ccTGkoIqhv+m98wTx8v/vf/gU1Cxbh+A9+yKidJX4vHvz+D/DQv/4a4VwFoWgLWlYuNd950E+aj/Z3Y7SrF8PP/hG3fLMLp6cTeNUZZ8Lb2korQlOUy3AMlFSqutcjZ2xJricKcrganDUCkkpe85GEMkE0vr5QEGVKpxYTB8IRtL76aByezqOGUhwvpZEfGUXX853IF8uoX3k4mpqaEaYwZOlr5h+xilUHUM6kaXphfsB/8dGrEZ/XTv77ECrRBNHPFEj8QjCA1kwG7cesRsZHoWT9+nCT8QUyXTyeCRwGyF0IVFobl7caEpWMZqAyMoDBF56nFBWw9KjjcM5lH4fv2DVWhIoTGL/jdnznq1+nhUrh7vvvx3HnngfURVldAYNr/4An77gF0UIFLQsOxuvecx4Wn3UGsKCFHOL921/Aul/9Ak//5rcY7u3G+t/8GstWrUakuY3MDlDFNU1tCW+iIds1PauheTQWyJxTuGp5I6aoHPvvLGMpB8KoNLbi6A9cSLwIiFBssyPAnXfh36/6IZK0d6ec/34sO5umKhQjHejA8/rOdMLcH4kGqSEBvOnd78OCc89ho7xekq4Qg2SE8RccC03PhF4i1D/S0YbAplPE3UF9J6iQdRSSJH3SXTGNOacCgQjG+odoJyvIZPLG5vtWH82OxpFkuZIviLq3vgVfvudO3PjQvbjsW/+ISi0Hrl/AmRjAY7/7LU3IIHy1DVh91llYfNGHgEVtrJggSV22DK+7+EKsPvuNKNf7seOZJ7HhzrvpoPRRDc2l0NixIxRS9pEDp4NW5OGhs/OybS9tgI+OFi6q08Zp0gbKQZNQhUqIkkq7Qy0o0s4bG0H7n0nnkC16ME5zNOgJszu8X2tPaP4gv6VvwHGcqUKATApgsEi6kA4mj/DJ1NCv5UcwkR9DnoKazmXN85EAHbuf8av5Ruks0i8gAxQzW5TkmO/cmCjHnhN9itki6lrmw1sToW2O4slHH8A/ffrjePy3N6MwMMjghdIViKPSvhjeZYch1tbKDmWRToxiYrAHHc8/RzsO1C9eihUnnkyt9RobW+AgSiRokgSqNLWh/vDDEZ3fbn4uZKKjC4WhEVQ0ANp7IxgGrVRJG3TsxvlCSZCGqnMmF1AJbkkBHnuRJTOTNC0T1KoKtxKyogRIW/YjTebpQx1pao2+klUwzrZsNM1DouvtyUiBJjVLR59OopJJwsfgJFZII8oAw5fJIUyzYz6LafpUYOBEbTC0lEbsjkzE1FE9RC6QoQzV9LSJkuOr5HiuxM55kKJ6VhYsxjFvPRXhJj9qi/3ouvMX+N3fX4pfvPc9uPdTX8Dwf/0OpSe20FTlUNLLKBQeOeD06Ciy6RR8YUphlKpNG6uBa0EW80m2EUTAE6XUhGlylsBfR+etL5gMDyLFiKuSNiRnOWmpQ3ASRJ039HX2d0dT3ILllEVJ1GQZiwLumX+7XhN99Ag1Tla1ZhP4489+jJ+940z8+G1vxU/e9nbc9PZz8b3T34zvnHU2rjn/Qxh+ZgtCFQokA+cS21KQsmcGGPtqXBr7Z3jOrW4kA9inYsVvEowFp78Jp3/4/YjMq0NNDck3NoTU5mfx6H/9f/jB5z6PH3z6M1j3Lz+nVoyihlrhk8Qlkshnc2YqORBnVBGhpnDfPIjnVp3MMXGp0GEGY3U0WxHzAewSNaiYTZORCjnURxHJIVTVgHShekCTaP5ZcLNaXuA+T+g6j7lxKnVKmiI676D+cZvNUbppK7SoYLSzE0Nbt2Jg0xb0bdrE/S0o9gxgfMtOBOjcy8SK+dIukWPSyktVP63eKnSmIhRRSA9IDDYkD27W+POYF/m/jDESKRurx+J3vRcf/ulNOOGiC7DyTScg2taIUJ0fNUgh/9TDuPPaK/Hf3/s+KuO0hYEaE1EEQwFKAgfomAolJslCxuQXioLkuMxP0haodWRMkdtiMW9zPOUDtOPyeQpu9GKGVFsE1OeD9TUT9c/200G/CtvVcwLzS6mkhBYFKN4XM0w5bs1UgWg/SaRdtlIfvYDCMvrpk0VHHY81bz0bR/zNO+mz3s5o7a045E1vxuo3vQULVh3BHChGoZWA8X4mal69zK5xmzp3R004ckcFZCeloWzS7NtzCqEiHEg8QE9PJ1UoMNRbugJHXHQp3nzNt/Dhb34LZ33i41jx+mOxuDWOOkZET935e2xcu54MiKKmoQURSr5I4aW9rNC0aExRJkL9nTvw9Nr7MbptM3yM9dO9tPtaTk5KByNMlCJU5SJNmjrJ4bh/pzTAbs1iYaIIbiYCzTUWFpib+Gca8r/DBB24PtLWbf5O7RNLhQIyNCUZ9vnVNDsnX/89vPmG7+Jt19+At15/Pf76hu/grB/ciHOuugqNy5dRqGRRpLkUrsm+zowOAygxJmZVuk6BpM330uPLqendqQAdzMhzG/D8bffgmTvWYmzbIKWsiWHdEuDkN2PhBRfjtCv/Ea9+yxuY/VLUx8apotvopIoI1Tci2tBoNCDZuRmdf3yETowHzAe2Pv4ofnblV3Hztddi63/+Ct3rH0Sie7tZvt44bwG88VoykbbUIc8koSjdFR/7ymhIy0HcH2jQYi6jIRqc+ae75ILNXfzvoIivfyqnU045e9k9X3U9r/lZH8b9QXRSFSWoCTr1NCU7S9TyRK1nylMjh0irAvNzxrhsVwsVpTtiyK71WqRST4GCT3VWDs+JT9mshp/H8w/9Af/85S8bO//Af/4Xcl09KDKEyyQyKKbSDA+iCNTEkGfvYpEgavQ6aIRmIN6INSecimCtF4nBboakt6D7kUcQGU1gKSX8VXVx9Dx0H27//nfx7G23oTSUINPqsPjVRzBRa2R9+hYzic3+CPVtH0UgSGXgT40jkh5HNJtkgscB52li8qIYR2H6T8FyhmjGxX92hl4XTQHzlzSsOrJo/qooIRoJISymM20PkQGKFOkVjXAKg9RYH01ogGazTh/64z1WWFSPrWs2YCLGATlFRGrbJtVGG1YuNaownv2rNYdhcEkztj/zPDb8+0/g796GeYetImFrUMolMbZjC576n/9CggyPH9yCg448jB1m46EaHHrSW7Fm4w48e+e92P7HdRi4ZhTHnPR6LJhXi2OXLMZzOzqQ7utG0ATFwMHHHo3mo1aiGJYpLKLM0M+vldSU+FRXJ9J3Ma9gfJ720zzxHr2nPFT0ozfcjmNWLcP8BayF1PN7Q3TwWuSlSEpCRY2micrLLIgv9CUcnZHXCv2QWvfT3ptnCxy7ggU/SygTD5ZzmF8KIvXYY+hgdp+kNJSZlbOHZnV4gPkI4yXQ5mI5Q21vPGryAktQUXNmNohZhKmLdm/quCguyxsecihOf/uZ+B3T8s07duDxO36L1K23o8AwSVlqgISoZ9ofXrQEx575FtSsXoEsbacENrL0MJzwrvORm0iTAU+jf9MG/PrZJ0iEPGJBD+oZd0epNfryoT4zH46GeC/9RSpBE6NF4PrNGKoxTcGGJ5/EQ08+ixwdbc6nNZlUf45zLFSL7qZD8bFLL8C8Za9hWX3QI488cy7jbDkmrZoWPfJ08j7Wr6XxmsLOMuzNkiP6BQxFZ9Z3y3aLEjQilMwSU+4gG3rstlsxePN/IEMTKM0RhKkVRSWpLNe4YjUuX30Uc9Q4TSPZTiX0kDZO0d3Ad/nll3/V2Z8RlOpr7b9HH8dYvBitCxfCH4+RKYx8/BE0xWrQ2NCMhUzADj729TiW0cGaM89AORaljSRBgwFKFSWvrgaHrFyBEM1UY10dGqKM+wNl1DbEEWtvxeJVq1G36CAO1oMtzz6Nvt4exOcvRBOvZZMjeJ7+opYEqg2FUc+MurmmDs2UshYOtKW2jgliOwr17XjN647G4hXMsju34emNO1GM1mHJscdi2aqVNEhkJM2ExCtCiRfnPF19eOGpzajQwS587dFoX76cERevifqMsPRgMb91B4a29yIaiCEY9KKhLoTmWAitHHsbsZ1BRl0shii3zUsPxoqTT4anlv6LjluMrxboXcHT09Mz+1WCLJh+f5FBOWIyqepcZzdAH1AZpZTK7lKC/S2tAAmIee0o5lPIkHGaNpA0lam+UZqxgBZXyl/s7AX05sx4P+N+pvpkiEf3MvbteWgd1t52s/nq+QkXXIKDXktpLqew7fH1mJfMIppW2Kq5GvZD6bUiIDrghD+OHZEWLFhOpi1mR3t2ouOxLcgEauFbshyLmGV7i/Qbfko0CR+m+fHwGJ29SG/uRYpmLPrq1fC1tZgFw5rKqDCj1DcyoJdLtmxFaSJnchRWZCijwMXYMqk5A4cS6ZBh0BFedSQKivzIQKtNpKLZ7g6e7u7uORmgmzVGqaR5e1ySIUNtaiTqbkmTnF2FnWCLJonT9KEaVile0is9+py7CSHMfdzqWMxlx01BDYbETG3ezDa9iJAp+lhSiZzXp4f9fg5e1Wr8ZmQ80NZUyaiNWml0naEwJcPWRz+Q1zVe0PyMfgqxRALrQU9ANjrHygJxXua9PK/3g7P0OdKCMqMaWXa/XjRRRqrvRwiYmziNmkMzFndMzBXyrFOv6GoGVz7ClnPK7gKerq4u3T0rKAKxDJjiouZFVL3Mk0hslmezlnyZkQINY0h2zzRMOyoC6x5u3C7Y9wlUg+5mPRy0eUil/vNaPKAQmAUL1D7SMO0r06ExpKVWaAJNn0PQYiejmby3QN/AXohUpv4Q/YricPkmXfd6gib6kQCIAWUS1/Sb92vaQ40oINTiABMR6R6FtzIhPDal1TmT4Yp1dtz6p2uWvQpF5dyp0ebJngasKR75HbXOgcwAk5nwXMg/+s8BSbotXyWEEmYlbuYLhuqW5o8Y95JshvxUYpMVGuQZi7pqS6geyqA5Vkc1eeonV5OUQH0iRu8Zk5rmZb4aSqiUysYdTt1OH6w5Igm4EcOkUR5Kop+ECOo+03m2yDbUlh2TbmYDeuwmgrENMcus0JDTZhkVk9SZ4jynHpsRiLEirNnqnEV3Skfj1BmTKJrtFC13RU9HZ6eamRXEWfFPYONl8pKDdaVZZ4xKqjGTBHFXttHcSVKRapIilbcTarxXxDLXLUo4tNwwUNK8fwUFOm0xWLQ0X3VTdCLi6V0C2VtGRFYDVJ3CTT2I0cyqmCNZU600mbTjpu8iroqKGMoIrUrzGuvTPJTpj6lqEvTeQoF9UlHz9ReNT/u8phdJLOhILdqR6P0A+b2yZlt5hTUYRlrpF+4Onh0dHSo7K9g+2SKGWFWgIzZpCGoP3KrcxpxjmQr+34VtBHbbnGId3DEfTuJ/oyVml/9YUORVGTtUc5ducv7acraEvd+cMwOfKmHBPbbg9mf62SmYfrdGKnDrcsE9q63TD2mROaKwuJXsdp8A+H8r8nECserDzQAAAABJRU5ErkJggg==;" parent="1" vertex="1">
                    <mxGeometry x="240" y="395.5" width="73.67" height="99" as="geometry"/>
                </mxCell>
                <mxCell id="6" value="" style="shape=image;verticalLabelPosition=bottom;labelBackgroundColor=default;verticalAlign=top;aspect=fixed;imageAspect=0;image=data:image/png,iVBORw0KGgoAAAANSUhEUgAAAHQAAAB3CAYAAADSDmSJAAAAAXNSR0IArs4c6QAAAARnQU1BAACxjwv8YQUAAAAJcEhZcwAADsMAAA7DAcdvqGQAADpHSURBVHhe7X1nmF3Hed53e9m7vRcseiNIsFcArCJFmnYUxbbs5EmsFJffSeRYiv/kt/PT9hPrsRPZcRy5UDYtmQwhiWIFRFJEIUH0vti+d8vt/d687zdn9t692F2A2F2AwoNvn9lz7jlz5sz53vnanJk5rnQqW5E7dEPkcraLE9m6PGsryxdwQ+R2tndoTWgNELsG3QF0BWRlcPFkweR2qbT6dAfQNaXFQLQJRORXme4AepvRHUBvM7oD6G1GdwC9zegOoLcZudLpzI35WnqV463dMK3UzVvp/deObM2WqmHF+VvtRwCg6RsE1OXUZekalcslZ8+Q2+1x9kiI1Fy8tnr7YrGIPG5NLqRyyVxv8rG8sm4tVZxLXa6qovF4zD0qOFkqFfUcr7fJ43HjeFnyhbx4fT6plCtSRD7m9/v9eu1SZOthqYJyliPmXoo7BLO8QkBdiyC3AkBZl+WqbJhaSwsZcjWgixGBdTvXlRyADbnmAbX3ISD5fF6Bt8CSeJ6Jx+xxLQtlk2zDcddcQyqhgdVSPaBLP7k5p+eXeLwK0NC/5Qq5Bt10QC0QlsqLAMwHuxZRigiIG9JVJZQNbhC8IgAhKJlMRoLBoAQCAZOfkk4JdZt6sD6UThIlNQfwdd8Btp5qJZ9kyzGEOi1oYAuJOTX3Eo/3cwloPaNKdSqTElJ7c4JACUsmk5LL5TQRpGg0qlueX0DgRglgF3BNCeq9VCxpHq/PK14PElSq1+tRkPk7k80qqA2RBok0RKSvr1cbFfNw2xCJOAUbKtep1FoJRVPUtBTNc2aJLD+XgHqhwig9ZLIFl6ByP5vLSzyVljjAm5mZUftJMAni7OysZMF8qkVey3MWTDKV11MVG25Q9cIeVcqSSqZUin1en26Zt621TULhkJZ78eJFgF+QQrGAc1DRAJJgRhobJRwKSUtLqwwM9Eu4oUFCaAQtLS2qxn1IbAiFAm0ynhqSSun04R62XvU0z5kluPtzK6EerxcPXVbpoYSQARcvXJDJ6WmZnouLC5JDIJnIPJ4vFApGlQJIbgkGpUUdGTQSqlQProtEGnEXl6NasQWDPXC8KKHcsiwrraR0Jg1g3E7DyUo2k6SnJclUUjLpjNavCLD9Pr9KNyW4q6tb+np7pbunW0KhsNZR7wcGeAGsNSvc1pqUec7cToBaJ2UWEpiAJOo2kZAZSKDPD1CCYSkAKB5L4XwylVIwqV55HUGkp0yp5n4wFFSnhoB60VDC4YiCxd8+AKCggtnc55aSyesoUQSYDYR5TcMpS8CLBuAxdpVqm1qB4MbmYjIVnZKpqSltTA1Qz91dXfLwI4/I4OCgtKrk4n6VEoAU1Qi8N7WRpXnO/NwASkJtDKiLE1ssmXLu3DmJxeb0mEoXmDsDpkVjCYnFE2ojCWABDGdLJxgkSjd/E0Q6KNbWMfzhtgz7SXDC4QaA6FUJorPjBYNteMLjBJh5eb1KLc4HAEjAD+3hhDY8x+M2D4FkQxsZGZXx8TGZmJxU52zjxg1yz+7dsn3bVunp6sCzuLR8agw2ilpaHqsvWNhiLmJtqjUiEDZkIEMmJibkzJkzMg312oUWTiJ4p0+flngiKYk0VHDN9RZAVWnYUrLIbLWZ+E3wDKD4TdDRoLhv8weDId0STG7ZeAg+pYnb2gZBySKo3NryqM71vLP1oT6sEzUGwT179qyMj42pFtmz5wl56MH7pREOVmtrqz7zwrDKmJzq0y10siidiyLyOWjVATVgVKtMJtgtypWDBw9A8gr6sATjzJnTcvz4cai+EmwnmOqB6nOuIRmGAiAHEIKrW0okOL/wPKXY5LESS+LWAAqVC0eHYFE9m61zPfZ5XTDABgLGO/mNJrAawTQgkubX5EKDnJbDhw9DWkvy1a9+Rfr7e9VjpifNxlxLXlxTS7WAGjS+4IBSVZEZ3M7Nzcmbb76pzCRzJqGyPvroI80Xgi0soYDPC6g9VgXQkWAHEDKdx2sBIpm8AtVMCXbAwbEqoAuBrAWU0sj8aipwnNI+NjYuyURc7rn7Lunq7lRAG+Ep19OtAHThHVeByAgCSgekAK+Uqooqi4zp7OzUBycgtKOrTbwvE+0lnR7WxdaHiU5PbWLHQh714tbu29/ULGnU24RdovY9hTCLNr+5uUW2bd+uz8IwyJb/RaBVBVSDezCAfaOUBh/cf3qNKXivTU1NiPEGFFS2fIYTVuqYSAS6XjpJ6umCoQqWMg/uBLaUNhKdHzageqIKZD5KLDWFBdqWQ5DyiC0LhRL2SxobM+WcLU1DsYiwCSBnsgidgJnX65cQ4lRUXuZiMX021nOx+98KWlVACQKZxS29PlWtYArVLx0kPnRLa4usW7dOOto7NOhnCECVxcQwgzEgicxUgGvStYj3tong2cZC4LklqKwXVacH9lTDISRu2Sg06e+Kbo2dp4o29/dD7TI+5TX0ykl6HumLQqtaEzLOqDq3Ogltbe1ghPF8qXbZIzQxPqFeLzsJyFR6kYwvmb8B4UdDQ3h+a0KJmgQGM+7kNUzmOLcmVQGkna2q2qpEO+dxThvdfGMxoFCSzTFjZxlfMpSxoQ+J5bCxUbpJzMP0RaFVAJS2wyTwSFUZt2Q2gaRUkomUDDKDtokdCAnYotGREZmC5GqHQzwmcSTmb29vUymmjapNCug8sAbc2kQwNFGysOX9NcEDo0Nif1f0d1WatfrwV4D7/DEmmg81Iap6DYB8FtbBapKFElrlhUl1RC/GpjWiFXq5VxMZYSTBLRcuXJIf/vBHCGFSypQU7Cn7Q6mumI+2iYxS5wP7VHM93d3y4ksvIb6LaKfENMCOx+MyNzuH2DWuZVN6XC72GCEswZbE44x9eY7Syi2JWwOwW237vAQCBHqubAj2GtaJW0qjdh86GoC/KaXG00V+XMt+3IDfLb3wctnnyzz2npa8uFct1b8fXim5KsbHqKVVVbn1RKmiA1Rt4fUVME3CHqXjQ2A62tu1R4b9py3NTWB0WaX3ytCQpuErJo0MD8sw0ggknT06DI0mJ6dkcmJSbfbUVFSiTNGoTCN+TKcy2merHm4mh0bExmUaFRuZNkQnFGKt+JtktySCbrZlNCZzzqaryTZ7m1aR5ovjfatpTQFly2Wrppqr70VZjMgsMpvM5RsOlSDYJ74JYRl8S8LOc0o5wyCGEWmboAW0gz2TVnudzWS1gVAq6Zhxa0klDuXzOKWGDY7lExRVodja3ikT01IrQIVbMOnugmrtb7103ipa01rYAJ2Jqut6iGDSYSK4tHvcUmLIeBPKGAZzS1umzHQYWhsGcV+dJzJdz9OmmtdxJJbF48xrwTOSaaSOxDwklmXJXm98BXMfrVdNnltJawoo1e2mTZt0qy3ZSWrTkKqAGeaSKCmUODKZYQyllPEtJbUKpkkqWXR2HIdHQa3JQwm1jGd59j0pJYxlkupBrN2asji2ieWbBmUbDhsKJZ3OEW2/ldpa4nHWy6abQWsKKNVsA4JwOh7X+0BkHJ2bz0NsFHaYymKk551UT7SFZmvOXb015+fVbc1xbaBOQ/yi0JrWJhBg50JIbR8l7VpE5tA+0qtl675eUmmC1HC7mPoz0laTnPNWqurBW+p3vQ3VHi80VpZp89xqWlNAiUk4zHeUJia8HrpuCXUwIxvpvXNLhttUe9zuL3t+0cSbMJGYuWYf6ZZKqK1KHa1pbeiFsg+3t7dXX6ddi0yM6FGJpsdKYuunFNBe2XiSRIko46E04fd8cn4rgM7W7tfmNcchWdxCYnkOhZtz+M3jrAttqNvN97R0zKi2cR7/rBdubTMb4rWI19WmldLCxmfSmgJKECihDF+KGocuT3RUrIQyzLDq06rKWmLl7VaTAgSwoCYpgSUyjcdq8yDBfblKUrkl8VpThjlumG7Vqbk/+3sZu7KnyXruN8vhuYpMlRbQmgKqPUJo1ezGa25udo4uTYwLrQ3lcA5KyHzYsYhqWwxo9UzRCLQxLHp+4XErKRbUq+2qcx6gcZ8Nk0DSN9COeh6riXFvNa0poFSRpL6+Ph1cdS0iw6yE6tsOh/EaLjgA1BLzW4bXk0rZMudrz13vlmCSGKqwF4zqlqRhjZPnVtOaAqpgQLKocrdu3ar2z/QcmYe3UkIQ2Q2n70ghYapyCwWobPsGhZ0IPr2WzK33Ykk2bKFnaqWslsy5aiKxblpH1EsbDW0mpRu/bd1sDxcbp72O9WhtNb1g1CAaZyP/YveoJfMsCzXEatOaAkrig7ErLhaLSUdHxzyD+EC1D151dsqqemmnrkX2eltGPRmQl5aeq9WrsYXV32ZIDYn1Vs2Brc//xXldVk9rCqhlDPtdORQlEomoLeJbF6tWyUT1JGknATKZz/7cVDql1y5HC1q84zzVkjlmyrX56snW0YJeCzKP8Rq+oD954oR8cvSoeut09L6otCJAr6U0KgCMkkcngi2dwx3b2trUWWL3noYBqAJfhblc8BiRyhW3FCDE+QKlBSBoDkgKfjGxwm7wnImvFfnbRcajLBcu4Sulah5ei8Kg0jkoWipFbNGATHDC4vG/+hQ4Ygo1ezrH5vyFCzq47dChQwA2hjCsGc/jR915Hevn/OG+5ogpQuvHQtaStJq2vibdMKC2svMPock+mPkzNoovu41XSMmjg8RECTCvs9gZzzDDA9b7xR9qkVQOMWymiOoBTqi4IOLQpmBQ/Cg7RK8X4PlxzANcPGAsE6JUJMSESF7k8+L5Ql6XBPGEPldJPJUCEuw09v1oGZzXwsamPIEk890nm1cmm5HLQ5flww8/kP0/2i8/eesncv78ecmmszLQNyAdbZ0wCdQ6qB3q7EIDZNI/3Nej92ajIi9Y+NoRG3t9umFASQvBtIkPwj3sOyqOb0XoQPAdJbcMYzhBiAG7yhgktCxwgLwhcQci4g23SDSRl5lMWXKekCRKHpkFyMmSW7IAPY+UK3uk6PZL0eXTVIB0l9w+JL+UPAHdz4HxuZILDYXHA8gXwLUByVb8SD7JlL2Sx7GZZF6GJ2bk2Mmz8rPDn8qho5/KyTPnJAn1ytiY3iwHuN29625oHXi78Gr5cqHKRkdYlLhntcDNp5VNhbiK8HBUewQSrZ4F04ZR3R49+om8/vrrCmh/f7/MQn1dvDgk07MxML4sGajYEpjL+S4ltHgP8pWBNQdmuT1o8ZDoUj4nLkhsNpmGDc6iHUChQq3TRlPiaZfpcXJ8kh9aoRFagb8DQcSM/iAaDBoA6pfTtzBoILDT2WxasrDpHohTKZeRPH7jduKDFPvcRdwzK5vXb5LnnnlWurt7JQdnrRXOHWephYKQcuh5BU/nuQBogqlqHc9vG+wa0WIaYM0BJZGpn312QgEtgpl8A9PW3gEblZYro2MST2UlkSlIuugWaFroUUgcWYPA3YWYrwhmNcARaW9tkwgAbwyF9WEaW5oAKlQcuwUhReyUsMS7Fzn0EoBzSCaESmZjSewXZC4W1waRSM6JF8bOVcLdinnxlfNSKWQl6IXCLLHxpAHmgOx7fI8MQqvMzsyKH42lD9Lat24AjQO2WblKb9oASnBNwh80x20HqLr5voCOD3rttdd0uAjPU5r6+gdgM8Myl0jLTCIjo9GYlKEuC7CJcF8AKmwVtjmUUYJabmrpFK/HL+FAA0D0SzMkxQ1J1JF3iFkZR5KM51qGExOVAqQ6Hk9IAaByTYQMbGEZYsqphMV8ClJYFg/A9JdzEiplJVDJS4PPLc0hn+zcsk52bN4gEUh6JpVSyffgPh3dndIOafWGm6QA80JvmjF0AQ2jVC5qPg7Adiyp1mkt6JYASgnxQOLo+u/fv18n3RJknU0NqWpsaZHW9k6JwzlK5ErY5uAQQaJQRh56MQXGVBi8hxslmwdYaPX0iKnOyjhOWSCAvKddI0FDD0hLEUBRWtTbRp4KVa2mEvZzcJaKsMZFcRcyEgSYXUGRrga/bBvsl3VdbRKmgEFi47MzOijMQ8lFnSPNjRJuaZemzgEJN7dLpKlJ6+tCfFrgvdDIaFuxC7rNADXM9mio8v3vf1+nFvIYnY1YPKbDRFwAJ9LcCu/JDwmA84IysrCLZQCUQHiTBcAeSG4aaplAQrkBTEhkIAh1jLLQQGpJJRSSU8gDLPwuU6UCWOhTAAPgUb0AtkGoWz8ksqMRarQpKOubA9LsQh6A7cpnpJiBBLOhQJ1GwpC6Qh73K0qekgjnyx1okbI3KL0D66QD2qYNXrCrsRnPzrmo0CpwzMrwIdaKbjqg3DI4J395jir3BAJ0OjEc7JWGE0JJpe2jUHHyLycCN7e0ShhecDASUY+ylGcMCQ83W9Q8WeTP4z5pSBslQUsH42xPj3YIEEp4VeyaowJ34+lDQajrEKcYVmCLfdIRCUhrAFoCzk8A6jeQS0opPqNgNgRRD4DTxFH94ZA0RsKQONwXoMbZMYI6JOAdz8wlYPPd0tTRKeu27pT+bTsEXhN9JCl60Tg1esbDWUGd3wVf7LEbpJsOqAETsZF6ewJP96i8/fbbZj4IzseTMckDWManbNHs7jMj+0pqXx98+GEFajo6ozFrNgvJKFUUVE7lz8DBqUAFktgbxOtYLonX+cBQqkmfD3EqpD3oM/NHGfV7IYlN/qL40rPSXMqIH96tG/dvgNrs7++BGm2Vzr6NuN6+80SIQ88a12sog2Li0UnJJOZk7MoQniUhkGsAulO2PrxXwv0bIL0hSRcgqchv+qXJIb09dirQGeZ13Y3SLQeUAfqrr76qDhGfLAZAi1BfBJRSavpKOUSziBChW15++WWd83Lx0iUZHR2XocvDyJvX8xoHsoepBkDel3aZ0yDoILFHxwtAvQqoF0E/nCe+LPcDXE9JwqWEhHNxaYI364O0t7X1yuDgBunp7xZfsEFyyE+bzVH6bDCW+EweiCC9Ykp+CsBOTY7J2fNnZQZOV/+u++SBp78soa51UvIFoaKhSZCPdWMpCigktAw7z+M3SotdunYKfhHi6AX2GJEoiaaP1VSBYPCti9pXMIDja7NZqMGgF16jD6EPZ0jn1XONQS1Oz0zKzMwY0uh8is2NSyw2LqnktKSR8plZyafnpJCOaXJDEr0AL1BMSmM+KS3JlIQQB/sSSWlvaJLtux6S3k13SyDSCcnnGxSYdThOFThMZSQXbLDbSdSpJdQ9D7Xu7xiQDbselG3bd0oDRPfC4Q/l6FtvSCU1K5UcvGN2TVHX3gS6qYCS+B5RQYN6tGQki4BClTqSQFBVjEHs86UtZDhAydPXXOAPVyGpJmQEk9mvSyC4GIbHi+NIVLeafEi4MMhYEyrWn06KN52R5kBEtm+7S7r7+zVUykNNMsShZ8x+YK7DwFTMwzQUcnC2oFFoGlCvDByvJExBCka9G2p2585dEsI9Tn78Uzl+6KcwpClcw+E3KEf/UE3Uzyyasfp0UwCl5NERaucUhw0bAVZJOxuokukckXie80mplghgCjYzmczgN50YTgzi3BO2dIQrJeah+oKnW7GJvbnIh3OVIjnm0XiWiXl5DaIijV/D9LFm5ySB2JjjlXbe86B09A7CDs6gocVRmaS4AJwCydgD9eTWjv/VBohUgur3Qu37wUUelzDs7uA2Wdc/KOm5aXnvzX+Sy+ePwVJmIc1UuygKtYaipc+9uM5cId1UCQ3Cy2xuadaeInqktXbJSial15IZu4N8lEhVzUZFM69utWOc0spkfzsJj4Zcek0Fv/m+RjvPERO5MxkpJ9mxkJO+wUGEHIPiDTUQFfEARA+8WYYqbjoEdL9tUom1ibYQXjTvhOO8E7swfaGIbNq8Vbra2mTmykW5eOww7DVfEEBzOM+m0vnzLKGWOFOadpTJdtPNg4NkbSgT9zOZJHjHMTzI56ZkIGErLqhWcNTAtfgf33r4kJXbstNYfPCQfbm85OdmJTEzjZNeWbdlm7gQlmToaEGyfZBkF4BxUeKKAEFvZ7ZcGKL2twcNiaCy8RDsMuJXqv2Wzi7p6uyBWs/K6fffk+Tly/qWyAcEWRMWVV4D6SStHqCsX00dDbOrxH0CxT5ZDhjj0mscGslkQTDV4VAP7INZJfYwoEzaT40nCT5zaSPgHjsvqsne1e7bX9C6eiqARuKnKoWzlYP9bOvokMa2VoAJuwhvm6DwvSpd9Qoaknl/ii0klsnlbOcT7KI2LORnn5UbTlsZZXk9PtkwuF680DBTFy/K5VMnqeu1LrZ2qn/XgFYEKBvZfOJvJGU2T4IxPM7fhExHmOMwgQz6A9LX2weQvFKAYUNgAYAYHgTBSyqxAMB0SyYNR4R8LtNu4ijiSOYlQpToIqSIHeS4jSYUqOCpbQaT85AWJkoEjkJC8uLKJSQ+Mw7bnZFNWzbr+Nqy3qQguUJKMnBikrmkxFMxScJLTSamUY9ZxMEzksvGdJ8pmYzi/BRSVLLJWckhHnUDTIHDVIY/0NPVI13tXTIzNSNnTp0WSSVQB6NmVVWrZCunbphs86hNa65ya8Gm50hPNQdVFAwEpa21XbvncuwgUK47FUMj4JYDx9gvS+k0kszq2sQ85o/qi6n2N20UiyQDyTgvQPYB/FwiLom5GdSloD1AOnGXvhbAOH/6hHx25GP57OghOfHJYTl59LCcqEnHjxyqJuQ5dvRjTcx//MhhmZucgDqmR4xGijo3NbeoHzAXhXrH1tTG1EfBND9vnLQ9WO6atOaA1hMlNdwQVq+WCyO2Q+2pRJERdO3hDZaZ3AgHMnHYUvbj0n7y6es5QODoM1JKGaQ7yQkRSHxEjiDwwdP1wrstZRnLzuF+JWltbsS5EiQX9hogn/vkqBx65x05/M7bcvS997D/HvbfXzR9/PZ78jG2HyEP0wfvvi8njh2TgvPKju9xgwjRMvm8TI6Mi75ZQG3Umjh/isEq000HlMC1trbpNHxvwCc9fb3iw5Y9RlWzYsDLwwtltxnQNCyYl8KFZNun0gI+Qc7RWOhdepzkRzyqbYNMh3SqTkfKc/HI2VmZHh110phMcVZ4TZriMSdFx8arW01jMj05pVqIEuqChJrVVFA8vXV2Szq153PYZ1xtuqmAMsbkbGwuZcP1iyamJsQX9MnGzRulo7MDleH5BmkMNYrH5ZUc1DE74umNsu+WgBdh64plJg4NYUcBbK+bCXlgQAPegPiRjIIGmHRWnOTCNRw0FvQjL6SywD5ker2QKq761QiHraerS9b19UtXR6f09fdJb3//fOrmMqtO6unpkd7ubumFltFtd4+0wHsncEQxl2JnAmqB5wjhmdxwigwRRDZSpDUgz+///u//N2f/c1NVEiwtkJUaMsd1iiCeZ2YW6u38BYkl4W0CsIZIozQ2tcGx5TCRkBQqXvGHmrAflFBjq8RSUJPJNLYpXfAxB4YxFKEXrCEhEiIJ3bL3Ru0vpMSoNwDrAciwwS1+n77MzsSnJQBnaMddu3RVMLfXeNBcgKMNXm9PT7d0AbCuvgEHwB5NPGb39TeBhXPX24M8ALUHx9gweWP+nTtzRoZGxqR/6w55+NkvSRlqGL4dzhg3zdBi/LpeMnytpRV1zqvmWEALb1A9bY5T3XJ0wejYqPy//T+SUXiAeSARCEfE7Q9LCWDOJjISnYlpnMruPC6awTFFXqRiKSvpdEJSCDnKnLafyUKSEXOy05tbvlvFVu/IDd+q+PwSRLDfjDx9CEHc0VEZPX4IoUtSvvrP/4Xsvu8+NCr21cKGQ/WW4Byxz9Y4Ngw1qs9DW2+JDYWNio3AA/vMkIcDsOn0saerCNv56t9/T3524oQ89ev/Sn75P30DYHokz7o6gFJ/1PLr8xOurdoppZsKqGU61yV6HYBeHplEiIDQAs+XQdMNtnRKGaFJFgeobjPpFICE9ADMAOysP8ilZSC9UJk+8IKvunQYFphEL5gLK9q7kfmcTcZXbXzN5gNQLem4VEYvysSRg1Kcm5S9e56QPXv3QLoRR0JKTa8UJLzEDgKEORwdUfs8NYASEh2lgPuy8wK+mJLfx7CqAk86Ln/7138jQ7GY/Mp//o/y4C//ChzpIpQtynMYt2JAFcyF17PEm0rsAWL3HxnO0Qjs7+E6e1wwcQJu/8z0FPIUJBQJIehvk3B7h5T8DZJ2hyRWCspsISgZd6uUGnrF1b5BpHOjeLu3iL9vmwR6t4m/awvEelCkeZ2UGwekEOqRfLBLooWAXMlUZDJblkAwLG2NETgyQzIbHYGehvMFW1rmmn9gOhsBVXce9dJ1AJ3Edf/mE/NgW4Ak8/VYjnYdEGX0FWBBTpw6KQl4ti3dfbIFWoDSb4wBCEAQTOK6krQY3XQJte8vf/Dafvng8DF9/cRut1QeoQM70rnkqsenQ008gZB0dAM4rx/2Ng0+QCKhQhn6kDm+oB9NEiEJ1Dg7MHQ2GBoKJzpRmGhj+UKcI/xKqVkJF2LSm5+VTalxyQ+dFHc5JTu3b5X7HngE5XKICUMeXOgyMaO7wgC1+jy1xGdTe8hn4lU4UCxWJIj6peNz8i7CmHOXR+Wxl1+WZ37zNyQPZ9CUp+4ZruB1KyPTPBaWclMltFZlcVgkV5TmeB96nOxi8/JRS3nJJuckNTclcdi7Bl9Ztq7vlr62Rgm7cZ6vsCDZhUxeYnMpxJRpmYzGZGI6JlcmpuUy0vBMXIan4zI6CycqR4CCEoy0Sai9R8K9uG/foAQ6eiGpjQg9JmV6YpJ9VTra3o8UgPpk8vBS1HWxRMYxv03M60dDZCfJ5cvDcOJSMrBlszy09wlxRyLzz15bxlrQTVe5lpqaAFDAr28hdGoCjJCnkhNPKSM+2DBvmSkrIUhLX5Nf+pu80uaDU5OakySHfsA2ZRIJSc7hd2xOYoghOUmYHRa6nA1UO20oZaGQTUk+k5bZeEwmEW9OIC70d/VAwhvRoNxy+eIQbF6MPpQTs3LrAOfs1ydqJ91HHpMfd4KGiUZnZWh0XIejPPDkXgl3tqMlGwOrQCLvWtItCFugyqAaOXEpm83IhQvnAATfPXKMJkeqZ7DJAYS0qs6OprBs6W2Wwty4FOKzMofYdWYWQHL0fCYlWXi9uVRC8thS1eWwLcNrrbBPNZeSUjom3mIGDSUNr5mdCGk4MFlpjQSlEXbSCxtoF2g2XmpAnTA2BfV8CAASuyD5Ep4Oj74XxXVe5NeBaXrOJ5eGRuXcpSuShgm557HH5MGXXpByQ1BQE/WIvYhJVdFi37GmKyTD11q6JRJKhjAs6EfctmGwX50SjlT3qFQiITzxYesDEL4Ch4xkJFwB4JkZkfSslJNTsIlRKSWZpvEbKTEtFWwhvuJKREWQ3OlpOAkmSXpOPABZp1IAoDikqdLUIg0cMI04eBKeN8MprheYQjhEhlNLak8T6szwyEqkZSPfp/JVQjadkeHhERmZnFLJ3Hj3PXL/k0+KhINSCnL0Pxf8IJhV9tfurybdVAnlfw0noA45aqEdQTx7Vy6cP4f4MgkpwHHGl7CrZahPVzEvnYhD1/f16mKLCdglfi4kDYnkOB+3i6+08o56zsHu5SSI3yH4m0F4nQ2eMlR2ScJQ5xwW4ock8b0k41sfpK0hhDAHKPHFO3uPqMJLkFS7XLk6WdQqrDulCnWnpOooBiT2NGWgwifHxmVsaloSaCS927fLQ88+LaG+bnjYXnjoHEfM6zk7jTEouLCGErqKgNpfi1XUHqMPaVQWmcKFETm13Y8WfOHiBR0mWYJ7zyCfr7QqYGxHW4sMDgyAyTkdmB2bm5FkYlZVNLvx3DWAenHMLwW+fNNtCMaNI+MDAJVsDeJ+ITCYL8x9OhoQxhug+RvC8FhRGgL/Ek7OwcbG4dxweHYK6jON+iaxZUrgHFMccfIUGtiV6VmJI6RxN7dKz/adsnvvPgn3dEslHJAMVC3BpKdNzczuScq4/XACtfnK6GperzBsqS9w4e/rKZjSmkXsduLESXnle6/oV41oWyEIAC4h6wfXy759exESlOTy0JAMXbki4/BKudauxx/EPYzkkyhRfG3FMbB2UBk7DHQtBPYi8Ri/zgQgwzgWxrm2hgYA7YJThuvhTFFyuZQr32kWUyloTb6jhdpFY7C9UBzglkWjcyMUYefC+g0bZB3qufWuXQi5cB80GsRWOgsdQgtCHfE8rCn/LF/oSyxLy3lQWt7VdOOAOhVcvFhD1yqYzOY7TxJH0R05ckRee+11uP2XhAtPcZQ6O8GffvppHVR26eIlBXRiAnEkpIQxae099L0pGG8XaSSgjFn9cHTYX0tpDABQzlYLBUMS8QNMlEs7yRGBHFW/aeN67W4so/ypkRFJqIpP434wBTSqIL7+C4QbpGv9emnr7NJ1fdmYWC7J5tM5NjdKCuby1y+G9y0FlJ0MbKUElQCQaVzQmIOxP/nkE2VkK+zsk3AwCM4VgMnEdetzAJsDuGvvUQ8oR0fQGeG7STYeZJgHtCEQkrZQE0IOl0psSztUO8AcWD8gkcaIFKD++bqNk5s4pDSRSKqEUto5gZlqFDfRNyl2rHEAtpiqlfm5QJWOBFyOHIlflH4eAeUUPI6WJxAktmwyLTodlQPvH5A39u/X2PIxhAC9cIw40akWUE6Cqr1HLaC0z6EAwIOq1UnDAIEThDm/0wLaEozApgZkYN2AbNi8Ubp0xLxPHSLW3g+gKXlUsewn1pH9AIn11Hs5To725yKfdZwsaZi2HN1ugNY+PMnaKEvDI8Ny5sxZScTj+qZmCDb08uUhiU5NmddjvDeu0eEpkHZ6zgog1Cg79bkOA7sEQ+EwwIQ0QVVyql97R7u0wonp7eyR9QOD0tPbLQ2RMMqEWtVaG+eNb3mWegp9dhhIw4MbI9r0Jel2BJTEEQtcKu7y5csqnUMAlB4xVSC1HsuoLYcqnGqRc1ia4fBQnfOLvpS6R594Ahlc0tnVpcNfehGD0m5q3wDuU9GRfJQqlocEQBfWsEqrAehSZSvdjoDyPLvvSLRH7M3hAlb8AvDs7JwztT6P+DSh9pez2iidXA+JqrStqVmaEedS5TbC0enp69PeHY70463LRXN/vvLSrkLEv7WAssdo6WcwgC73/NeixRrwPN10QEEmbFm6Uqq+lqlzvRdo38RYYqhCB8QSHQ27ogqB5Mxwql6Cyf5bEsvQryeBWQHaUkgsG4YbcSfXWjDvSWmreZyDv80Uer7y4kwyCybJqNylCGBrW1suzwpoHi27rSMcXuzOKwJ0sResVbJ3vP7i6wGmg1NLBIYgk2gref/au9c6ITxOMGuJQFriHm1wNZQG6PMSY/KRp7XlX03Ln70WLXzaRWgxEbS0RN2uEdleg5Z7Hj13zSovJF5TmxYllolEKasrn79tYh4n53y6iuoksvrLVKBqUpZKa0xsbUulResDBxH/79BtRHcAvc1oZTaUYq7ivwjNq7Ol6Vpebj0tyI/dei/781zPPdVe5qdS7fXc4+uytaSVFr/Y096R0NuM7gB6m9HaAQp9om5/TVqxjlmUbMGfL6kn7HjKiyXmudpPXu20+rRmNpRM4dsKntXqM2vN/mqQNpI1Ii36Gje4+n3w5yHTbLhdTVpTlcuqMvEma8n8tSArpddON0oruXZpumNDbzO6A+htRncAvc3oDqC3Gd0B9DajFQIKTw3ua20XmvFsbbiiq/eYcy5OLuDrLZNslGeIe9VfhqrH7J65xhxbzGs2962Wy3leHo7d1WTvXy2tmurJHrMl2iP26Ra/qp5MTQwvyGhuDV3P1TdGK4hD+f6QW7KJL6HNMmk6jKOYE87AShfc5suEjV4pFFL64pkv+XXSK/Jz9rN5SPMek2sRKXH2LGJYMoFfYeBHBbjWOxeDYg6u8cP7ctCXrbyyXscEufSzHxyaGXIVJTE3LaNj49LT3y8NTS24vzNvBWTefxqAdKt9vRZCnMN92Fi5DCoPeZ37lvgbB7wcy2QrAFr4vhX7YBDvwBXNuMfHY1PWonGcg9z0xxLEAemfl9x8iBtNxQJne5kZX3zzz2Nc9ZJTBA4eOCDf+4dXJTprFjkm7/jlBE7uqeCx+Fcty+4zDxP2cf7MmdPyw/37ZejKMGpKaa/mZUbes1B0EupgzqFknsbD8Z6fHD4k//svvqPTLcxRk/jfjl5geea7o6Zse5yjIWon+Gq5mp9bc735bZIZvmmTWfBK39k7KozXcJU0U45NC8tYaVoRoPWJjIXE6/5cLCapZFofzI4EqM9/NZA2GWCOHj0iH3z4gZbJFl5//uryFibOk+G6u+lUSgeJcfYY36jwQwAcqlIFiDuUQluuuQ8EkGOzVZMwmWZo76sP5OybxGEt1eRBcRzmYpa641RDTbrPczxevf9qpRUBylWl+ZEdk9wSCvskFGlQhlWHc3ARLUpP/fWWeZaBzsPqPo9RmtEYwHiOIQp6LUOq13KIil0/l3Wov4dOfQiGdJ+LWBiy9TIW1UgQlLCTkFmPMXH6BBOHuzDVSjTz1d6LieOdqokmgtl4DvWFodHE/ZprVjt5vvWtb133ZCU7F4Mj8Dg/krPFOGg5nkjpd1nGRyfUdnlhWI4c/VRm4hnZvfse6epsUqaR6aRYIqEfiZuZmdaUz/Er+mFIM8cKeSSXS8mVoQty4vgxmZyalkhju7i8AZ2zwtVQcHOowaLE4gkZGx9HGTMyNzuDe5v6FGF9OWgs6HfL2JXL8vHhw3L/gw9Jd2+fDI+Nocwp1DmJvEFd6rWYz+jqJzpJCkjy4z9caINTBMeRf2xkxCxnF27AM5hFGPk8uUxWgeMiWiMjwzI6Oqp8IGP5KTBOhuJ6wJwhUSpAW1UKaCBuzcfxxax3Pp/VUYq8hgO6FRjUgYPFqd0+L7lisRhqd32k6pPSR5UFvuZzGTl9+oz86M135NzZCzrSrqUxInsfe0hOnj4ro9GM/Nbv/LZsHGzDOYIWkLfeeUcOfPiRDA0PSxaqkKqspaVD7rvvIXnu2Rekrb1FLlz8TL77f/9CpsYnwDqf5EoB2bJ1h/zq174qG9cPyPTEqBw8eEAOHTkmE1NRrVc46Jfu9mZ5fM9eefiJp3Udv2ApLQfeeVv+5u/+Tl78pV+SceR998BB8UNq+TmR3fc9KE8/9aRs29Av+WxKmciPIn786Ul5/+CHMjI0JAV+PiuXllAoLPc9+KjsQfm7dm7RKRI0BaMA+8c//rGcPXNWJydxRD2nbzzw4MPyzPMvSGM4KK48P79VlhK0zQ9efwN1PwTgp6HR+Ckvn9x1113ywgsv6PfVbsQRqiXPN7/5zeuWUEqm2iBHnZ46eVxeeeV7aKE5efSxx+RxJC4X/tmnR7XCwUir7L73XulsbwSzXPLe++/LX/7lX0pjS7Pse3KfPPXUPtm0cbN+GODTT45DMouyY/s2MCQiba3NkABITqkizz3/MvI/Le3trZJJJ+X1f/qB/OyjD2Tdho3yzDPPygMP3C9NaEhDly/JCBwofvWIc0/5ZcKLF87KhUs4PjwqE9FpeeHLL8ojqCdXOvngo0OqIbZuWq8gJBNxuXhpSP76lVclDvv/2GOPy769T8jO7RshoRk5cfoC6lTQScqRSFguX7qM539F5+MQlOeff16279gOqR6Xd959X3zQOju27xAf2EVt9md//ufyxv4fy/r1W+T5F16U++/bLYFgQD777DP9QNGOHTv026TUPrWjJz4PeX7v937vugE1KhN2pJyH11eQH6FlRmdm5cWXfkFefPEl2bJpg+zasVMqsJkXLlySfMUr9z9wn/T2dUpsZkq+853vSAbg/ebv/I489vjjAKhNP+W8edMWOX3yDBpGXu6+Z5e0NEckHArK8JUrYHhc9jz5Jbnr7s06v/LUyWPywYH3ZNvWbfLr//Jfy8ZNm7RlPwhQ/VBnnx47Jq0d3ShzMzSCW0YA8rFjn4nX75d//1u/LU/s2SPrkH/37t2SRUM8fOhjaWxskK2bN+v3Qt9+9z00gCvy8i/+kvzCS1+W9YMD0DADsm3bdqj3GKR8Unp62qS7q03Onj4txz49hsb2FLTH13RaIevT1dEhl6BSi3CKtgPQBjzLYaj9V773KvI+I1//+n+QHdu2Ie96ue/++3RwOGfeEcSNGzdCRUNTOE4c+b1ogmpejIxRXIoYd2nsZYiqjatKe7xFOXbisJyHfRoEIzZt3YKbVySXzujiiE88+rh+gZBrFmgokM+pU8JW/Iv/7Bdl57Zd4oUqjYSa9Pzs9BQaiwtgpyWb4/e4PbA5cHaQh8uL53U9IN4/A+dI5IHd98oz+56Wjo52aWwIqQlIQLp0OgPKIzPU/uCh07B9tEt7oSo3b96u69hT8lEh+fKzT0lLU6Mc/NkRiSay4mtoko7Obnn+2Wfl4ft3c4onTALZ55HZWXjK/CAQiFMPub4uv2ZYRux7/iLs/clTMgOVzoru2HWXfOu/flN+GSB7/SEAK/LRx0dg4HxQ2U/rR33MbPSEjvbfunWzfu3w1KmTOkOdi2x5lgNTE906xszGzbPJy4ddnHB6wbmqJwXli20J3mtRbREdEa6c6QOoPM75It2dnTI0fV5dfzoQnHr/b/7dv5WJiSn54Zs/krGJCZmOjpv5l3CeYrG0dPRswG1pn6nW4SVC3dL5KvIP9+UnIe+9+y65d+ddMgIH7Pv/+H2ZgoZIp5IyNjosc9EJZRQdFXracJp1khJNRWdnFyrCR0b5TtcGnaimSKMkwfEknKD21i55BmBmoVY50+30uTOSiM9JHPeYis5KPF1BI4I/AO+atm7H9q1y/MRJOXL8FJy8S7JxYJ309XTL4Po+2bpzlzQ3tUukwSOxqVnUbwyNwyuv/v2ruLaioHHBZV0OFs/Gj/zxG+X8nDW/Y8OwamlsQHqOT7GQlglbat3releb5cGTLLnAZC765MU+PF9KCJjFjiMP127DL0oelxPllPoP3j8gf/AH/13+7m9fkY/gGE3A1vi9fqi1dboOPUpmU9HE+5gWyAA9j8T1FzgD7Yr8wz/+vfzRn/whVP4bsD+fysTktHS0d8uWzdtQTgtsUB4MMfWhKSJzGpzvf5uEWqqnbkIv1pPzQVOZJMo7Jv/j238if/pnfybvvP0enL5zWqOeng5pa2tEXni3WXaU+KStp1e+8pWvyEsvvaRqn7b6B6/9k/yfv/or+eM//EM5eugQHD/cg/dCTOxDI/OiQnAn1IHUUC8UUk97y5Yt0CAwK2iMNhpYyPPrS8tIKMlxm508wNXRwGA1FxSGh6q9KFAzrpBbXXRO48vBq4vORiG5nOrHG5XhJE3Kd7/71+KBCvrVr/2a2rHe7jZpgBcYn0vIH/3xn0oWDCajuc4swWCEQtVjJNalLfcUVNv7P/1QBuEQPfL4HukfWI+W3QUv1ycfHXxfRsZGtb4EDeKJ67gGoB9qmCBb6WfLhrcOr5bfXvMjTOEnnGMIfd5+6y1okag896UXZTuclP6+bpgGty4Y+Vff/QeZhKQyXqazlorHNTzhx2IfR13oDM3CVzh94hgk9xQcoDd0Bvq67hZphGqfiSXl137ta7Juc78U0wixQgDOETKaCYJJ4lwdJvt7UVoCtmtIKJMNhpno6cL8wLdvaW5BaBCR6MSkpGC/2OJoM3mfKcRXSe2dyZuVLuG1nTp1SvhR8gcQD+7b96SuOU9GFuHZDkPq5rhwFBoEJQi10hnX7OWhJUURkM6KxOMphDSX4Rk2y569X4J3+5iCycUc5+Zm5MqViwCd8R64hJan9YXK5kRdepE0iGQU13AgJy/jvjGA0tXZAS+5QSagtmemp6Ey1wPQ5+Weu7ZIwB9A1gqAisJOx3AdbDTixUwWGueDD+R//a//qbPNuSra9p07ZM++ffL13/i6PProIzI0MiQXhy+JPxyQQCQk0fiMfAKwaUoyeKg44nGurs3Y9cyZM3DeEIbBFJEH9AsWx2X5dI2eIgukAZPqiRJJZnDhqO3btsoM7NYHiAkZgPMhJwHwRx99DDU46fTksDUzuDbrDzCcoQTo4sZwoiYnx+VdxKYM3NlYOTObCydCjCQEl562mSEDP2THWdhc24Ce8iV4omOQCMaC0WhUDh0+JJ/C46SnyhWktf5cHhUSSgeJXuShn32s++zFGh6+Iq+/sR8N0A1nbacEAYjKLerLz0lfGhqW6Tku58pYc1gO/vSncgXhCcvmJCiu0RBGXUZGRlW1DiM/68EGMTk5ofusP9fPpUJ4/Ak0Pnj177zzlnx2/KSCxvslAOqBAwfk29/+tnz44YdkkYJp+qbr8bh28nzjG99YImyhrBE8bpl4excALWJTUt3fGGnSBzh+/DPtKbmCQPzI4aPCXpA0wHWjdd8NJ6atOYwW7AVDxuDMTMrQlVGdhX3sk0Ny4L13USZ7fioIc9yyA85ER0cLwE7KxPBFZWYMTE1nUogtm8UPZ4Jx37nzZ3XxDO4fOPhTOX/2nEpJOp2VHjgnO3Zsk4CnJJcunEMsekHa2jvlyCeQADS0c2dPyU9+8hNVn089/Qw0xh48Khf/z8v09KycOntJhrkkOczEubOn5eD778g0tE6pbHyFDevXQRX3wFyEkD+KPOflLO4/EZ2Cc3Re3n3rTRkfH5eHHn1CHn74IQl6KtrhwgU82AHx6dEjMoHz/Egf+6oPoUHQIXrqqac0bFlRHPq7v/tfAKgBa2EiEUiSc4ytAHu6WDCktr29Q3p7e1WFUUKpLqhGH3n0MdiWJoq03A0XvrUpAvCbpbO7D+qqrK+zmL8ItbMZD/Cl556X5rY2GYV0r984qPEpPwDnhxFl78soyuU9BhEPbt68SfjpxzSOz87NygxUNVcteeihh2Xf3j2qxmgbe3q6cN9G9R4no9Py5Zdelpa2DjmGIJ4gcBb3U089gzBij3Yn8ptmjZEGPE8fnDiWn0Gj44fx4royypeggru6e1GftPR087m7tFH39vXDk21EXebUfrPsVtjVRxFnPwq7yqXmynDSyLvNiJ27u7o1VIlCEMbGx1Sq7r33Xnnuuec0JqcG4TGrcpcjeAPOXpVc4+NTS1yl0DlbUu3F5hhbEe/JFkUVwj5Iem48TeeG31Vh3yxX6fLS1YdtI6BZSC/tpS5qDFXMinHdIapSN1pxCI4SwWSsx8bDT1BxXVquV8/CzYO4oK5gYz1cny9kykdeOjnMwfWI+LkrriNI8kNbcN16MpMOFz8I5IE61qeEjaRH7cY9POxDxa8sVCvrSCdP40JsOWGY2oR5eT8fno3fnrE8YP8wY1SqWn7q0r53ZX4S3wcTMNpxo5WMKWLDIIDkIe+jvLwGmKR6OHmJa3xsGUD1Re7SxJsSVHqRrBArqgE9iBXjb57nOZJVI9xqY8BPLjpFYj+vJX5ZgQQnlb/U5pFoV6rEMrh+nvFc8Q8NynRNkqhBuD6DLZdr5lqPl3XTFcuc8sq8HFt+Hks/RuDlGAdHG+EZ2dFvGUxQSHznSQ4yHuXz8UN8zq0BiMlb0mucgw7xWejw8Q0RnUXlA8vBvfW8A+x1kblNlVCOa2x0sv6wQzh8DUAt2YclmNbVZoslkXmsJCtuK8r8vEIBghOix8AE6zhZAEtldn/BsUIZdETYQKrEkMisU6TlkSlIfkgYiS/VWbRdo6H2dR6lg32rIYDL57SAMgwjeAWcU3RQAMsk2WekxJL4ZoQeMMMhPpepp2m47KBnboZftWTLsnUxnwpzGrc9t1JAR0cm6g87hMNQRVdfdTUtVhkLomU2E4+R9De2lCBKjTlGphhmkYykGQ1gSaVinni8Glfyj+DZ/LwHVWstoDQDdEy0nijLND1IIC7hVQSUUlMBkB44WBylUC2H6xb55+vAcggm39Dwan6f2xKfSTmiz7aw/jzH+/MMy6xtaJZHyh+ka5HCU0O8xjUyPL7ElTh8nYAuRbVgkGpbnpZad35xWi7PcufIlKVbOpqazr1hPgsoY15ueRWltv7J68szn+9anMzzLQS0nnQBS6eRkzfk10oALZdL8v8BdtbKwPt8qpUAAAAASUVORK5CYII=;" parent="1" vertex="1">
                    <mxGeometry x="322.27" y="401" width="87.73" height="90" as="geometry"/>
                </mxCell>
                <mxCell id="7" value="" style="rounded=1;whiteSpace=wrap;html=1;strokeColor=#660000;strokeWidth=3;fontSize=30;fontColor=#0d0c0c;fillColor=#FFFFFF;" parent="1" vertex="1">
                    <mxGeometry x="510" y="380" width="210" height="130" as="geometry"/>
                </mxCell>
                <mxCell id="10" value="" style="rounded=1;whiteSpace=wrap;html=1;strokeColor=#990000;strokeWidth=2;fontSize=30;fillColor=#f8cecc;gradientColor=#ea6b66;" parent="1" vertex="1">
                    <mxGeometry x="130" y="270" width="590" height="100" as="geometry"/>
                </mxCell>
                <mxCell id="11" value="&lt;b&gt;DAC&lt;/b&gt;" style="text;html=1;align=center;verticalAlign=middle;resizable=0;points=[];autosize=1;strokeColor=none;fillColor=none;fontSize=30;fontColor=#0d0c0c;rotation=-90;" parent="1" vertex="1">
                    <mxGeometry x="110" y="296.25" width="90" height="50" as="geometry"/>
                </mxCell>
                <mxCell id="12" value="IDAO" style="rounded=1;whiteSpace=wrap;html=1;strokeColor=#000000;strokeWidth=3;fontSize=30;fontColor=#333333;fillColor=#f5f5f5;" parent="1" vertex="1">
                    <mxGeometry x="290" y="290" width="95" height="65" as="geometry"/>
                </mxCell>
                <mxCell id="13" value="DAO" style="rounded=1;whiteSpace=wrap;html=1;strokeColor=#000000;strokeWidth=3;fontSize=30;fontColor=#333333;fillColor=#f5f5f5;rotation=0;" parent="1" vertex="1">
                    <mxGeometry x="180" y="287.5" width="92.5" height="67.5" as="geometry"/>
                </mxCell>
                <mxCell id="14" value="&lt;p style=&quot;line-height: 80%;&quot;&gt;&lt;font style=&quot;font-size: 22px;&quot;&gt;Data&lt;br&gt;Helper&lt;/font&gt;&lt;/p&gt;" style="rounded=1;whiteSpace=wrap;html=1;strokeColor=#000000;strokeWidth=3;fontSize=30;fontColor=#333333;fillColor=#f5f5f5;" parent="1" vertex="1">
                    <mxGeometry x="400" y="290" width="95" height="70" as="geometry"/>
                </mxCell>
                <mxCell id="15" value="DTO" style="rounded=1;whiteSpace=wrap;html=1;strokeColor=#000000;strokeWidth=3;fontSize=30;fontColor=#333333;fillColor=#f5f5f5;" parent="1" vertex="1">
                    <mxGeometry x="505" y="290" width="95" height="65" as="geometry"/>
                </mxCell>
                <mxCell id="17" value="" style="rounded=1;whiteSpace=wrap;html=1;strokeColor=#82b366;strokeWidth=3;fontSize=20;fillColor=#d5e8d4;" parent="1" vertex="1">
                    <mxGeometry x="130" y="160" width="590" height="100" as="geometry"/>
                </mxCell>
                <mxCell id="18" value="&lt;font color=&quot;#000000&quot;&gt;&lt;b&gt;Business&lt;/b&gt;&lt;/font&gt;" style="text;html=1;strokeColor=none;fillColor=none;align=center;verticalAlign=middle;whiteSpace=wrap;rounded=0;strokeWidth=3;fontSize=20;fontColor=#0d0c0c;rotation=-90;" parent="1" vertex="1">
                    <mxGeometry x="120" y="195" width="60" height="30" as="geometry"/>
                </mxCell>
                <mxCell id="19" value="&lt;p style=&quot;line-height: 90%; font-size: 21px;&quot;&gt;Business&lt;br&gt;Logic&lt;br&gt;&lt;/p&gt;" style="rounded=1;whiteSpace=wrap;html=1;strokeColor=#000000;strokeWidth=3;fontSize=30;fontColor=#333333;fillColor=#f5f5f5;rotation=0;" parent="1" vertex="1">
                    <mxGeometry x="180" y="176.25" width="92.5" height="67.5" as="geometry"/>
                </mxCell>
                <mxCell id="22" value="&lt;p style=&quot;line-height: 30%; font-size: 21px;&quot;&gt;Business&lt;br&gt;&lt;/p&gt;&lt;p style=&quot;line-height: 30%; font-size: 21px;&quot;&gt;Entities&lt;/p&gt;" style="rounded=1;whiteSpace=wrap;html=1;strokeColor=#000000;strokeWidth=3;fontSize=30;fontColor=#333333;fillColor=#f5f5f5;rotation=0;" parent="1" vertex="1">
                    <mxGeometry x="292.5" y="176.25" width="117.5" height="67.5" as="geometry"/>
                </mxCell>
                <mxCell id="23" value="&lt;font color=&quot;#000000&quot;&gt;App/Service &lt;b&gt;Facede: &lt;/b&gt;Contracts, Service, WF Service&lt;/font&gt;" style="rounded=1;whiteSpace=wrap;html=1;strokeColor=#314354;strokeWidth=3;fontSize=21;fillColor=#647687;fontColor=#ffffff;" parent="1" vertex="1">
                    <mxGeometry x="130" y="110" width="590" height="40" as="geometry"/>
                </mxCell>
                <mxCell id="24" value="" style="rounded=1;whiteSpace=wrap;html=1;strokeColor=#d79b00;strokeWidth=3;fontSize=21;fillColor=#ffe6cc;" parent="1" vertex="1">
                    <mxGeometry x="130" y="-20" width="590" height="120" as="geometry"/>
                </mxCell>
                <mxCell id="25" value="&lt;font style=&quot;font-size: 18px;&quot; color=&quot;#000000&quot;&gt;&lt;b&gt;USE&lt;br&gt;INTERFACE&lt;br&gt;&lt;/b&gt;&lt;/font&gt;" style="text;html=1;strokeColor=none;fillColor=none;align=center;verticalAlign=middle;whiteSpace=wrap;rounded=0;strokeWidth=3;fontSize=20;fontColor=#0d0c0c;rotation=-90;" parent="1" vertex="1">
                    <mxGeometry x="130" y="25" width="60" height="30" as="geometry"/>
                </mxCell>
                <mxCell id="26" value="&lt;p style=&quot;line-height: 90%; font-size: 21px;&quot;&gt;&lt;font color=&quot;#000000&quot;&gt;UIDComponent&lt;/font&gt;&lt;/p&gt;" style="rounded=1;whiteSpace=wrap;html=1;strokeColor=#23445d;strokeWidth=3;fontSize=30;fillColor=#bac8d3;rotation=0;" parent="1" vertex="1">
                    <mxGeometry x="197.5" y="-10" width="222.5" height="42.5" as="geometry"/>
                </mxCell>
                <mxCell id="27" value="&lt;p style=&quot;line-height: 90%; font-size: 21px;&quot;&gt;&lt;font color=&quot;#000000&quot;&gt;UI Process Component&lt;/font&gt;&lt;/p&gt;" style="rounded=1;whiteSpace=wrap;html=1;strokeColor=#23445d;strokeWidth=3;fontSize=30;fillColor=#bac8d3;rotation=0;" parent="1" vertex="1">
                    <mxGeometry x="197.5" y="50" width="222.5" height="42.5" as="geometry"/>
                </mxCell>
                <mxCell id="28" value="&lt;p style=&quot;line-height: 40%; font-size: 21px;&quot;&gt;&lt;font color=&quot;#000000&quot;&gt;Controler&lt;/font&gt;&lt;/p&gt;&lt;p style=&quot;line-height: 40%; font-size: 21px;&quot;&gt;&lt;font color=&quot;#000000&quot;&gt;UIC&lt;/font&gt;&lt;/p&gt;" style="rounded=1;whiteSpace=wrap;html=1;strokeColor=#23445d;strokeWidth=3;fontSize=30;fillColor=#bac8d3;rotation=0;" parent="1" vertex="1">
                    <mxGeometry x="430" y="-5" width="120" height="90" as="geometry"/>
                </mxCell>
                <mxCell id="29" value="&lt;p style=&quot;line-height: 40%; font-size: 21px;&quot;&gt;&lt;font color=&quot;#000000&quot;&gt;External&lt;/font&gt;&lt;/p&gt;&lt;p style=&quot;line-height: 40%; font-size: 21px;&quot;&gt;&lt;font color=&quot;#000000&quot;&gt;Systems&lt;/font&gt;&lt;/p&gt;" style="rounded=1;whiteSpace=wrap;html=1;strokeColor=#23445d;strokeWidth=3;fontSize=30;fillColor=#bac8d3;rotation=0;" parent="1" vertex="1">
                    <mxGeometry x="570" y="-5" width="120" height="90" as="geometry"/>
                </mxCell>
                <mxCell id="30" value="" style="rounded=1;whiteSpace=wrap;html=1;strokeColor=#6c8ebf;strokeWidth=3;fontSize=18;fillColor=#dae8fc;gradientColor=#7ea6e0;" parent="1" vertex="1">
                    <mxGeometry x="740.01" y="-20" width="200" height="399" as="geometry"/>
                </mxCell>
                <mxCell id="32" value="&lt;font style=&quot;font-size: 18px;&quot; color=&quot;#000000&quot;&gt;&lt;b&gt;FRAMEWORK&lt;br&gt;&lt;/b&gt;&lt;/font&gt;" style="text;html=1;strokeColor=none;fillColor=none;align=center;verticalAlign=middle;whiteSpace=wrap;rounded=0;strokeWidth=3;fontSize=20;fontColor=#0d0c0c;rotation=0;" parent="1" vertex="1">
                    <mxGeometry x="810" y="2.5" width="60" height="30" as="geometry"/>
                </mxCell>
                <mxCell id="36" value="&lt;p style=&quot;line-height: 90%; font-size: 21px;&quot;&gt;&lt;font color=&quot;#000000&quot;&gt;Exception&lt;/font&gt;&lt;/p&gt;" style="rounded=1;whiteSpace=wrap;html=1;strokeColor=#23445d;strokeWidth=3;fontSize=30;fillColor=#bac8d3;rotation=0;" parent="1" vertex="1">
                    <mxGeometry x="769.8" y="160" width="140.41" height="42.5" as="geometry"/>
                </mxCell>
            </root>
        </mxGraphModel>
    </diagram>
</mxfile>